<svg width="424" height="211" viewBox="0 0 424 211" fill="none" xmlns="http://www.w3.org/2000/svg">
<path d="M329.4 179.1C302.2 179.1 283.8 164.1 266 149.6C249.5 136.2 234 123.4 212.1 123.4C212.1 123.4 212.1 123.4 212 123.4C190.2 123.4 174.6 136.1 158.2 149.6C140.4 164.1 122 179.2 94.9 179.2C69.4 179.2 45.6 170 27.9 153.2C10.2 136.4 0.5 114 0.5 90.0002C0.5 66.0002 10.2 43.6002 27.9 26.8002C45.6 10.1002 69.4 0.800195 94.9 0.800195C122.1 0.800195 140.5 15.8002 158.3 30.3002C174.8 43.7002 190.3 56.4002 212.2 56.5002C212.2 56.5002 212.2 56.5002 212.3 56.5002C234.1 56.5002 249.7 43.8002 266.1 30.3002C283.9 15.8002 302.3 0.700195 329.4 0.700195C354.9 0.700195 378.7 9.9002 396.4 26.7002C414.1 43.5002 423.8 66.0002 423.8 90.0002C423.8 114 414.1 136.4 396.4 153.2C378.7 169.9 354.9 179.1 329.4 179.1ZM212.1 108.4C239.3 108.4 257.7 123.4 275.5 138C292 151.5 307.5 164.2 329.4 164.2C374 164.2 408.9 131.6 408.9 90.0002C408.9 48.4002 374 15.8002 329.4 15.8002C307.6 15.8002 292 28.5002 275.6 42.0002C257.8 56.5002 239.5 71.5002 212.3 71.5002C212.3 71.5002 212.3 71.5002 212.2 71.5002C185 71.5002 166.6 56.5002 148.9 41.9002C132.4 28.4002 116.9 15.7002 95 15.7002C50.4 15.7002 15.5 48.3002 15.5 89.9002C15.5 131.5 50.4 164.1 95 164.1C116.8 164.1 132.4 151.4 148.8 137.9C166.6 123.5 184.9 108.4 212.1 108.4Z" fill="#8AC054"/>
<path d="M95 16C101.1 16 107 17 112.8 19C114.6 22.8 118.3 25.4 122.8 25.4C128.9 25.4 133.8 20.5 133.8 14.4C133.8 8.3 128.9 3.4 122.8 3.4C121.4 3.4 120.1 3.7 118.8 4.2C111 1.4 103.1 0 95 0C69.3 0 45.4 9.3 27.6 26.1C9.8 43 0 65.5 0 89.7C0 113.9 9.8 136.4 27.6 153.3C45.4 170.1 69.3 179.4 95 179.4C106.4 179.4 117.1 176.8 127.9 171.3L127.6 170.7C129.3 169.3 130.3 167.2 130.3 164.9C130.3 160.8 126.9 157.4 122.8 157.4C122.2 157.4 121.6 157.5 121 157.6L120.7 157C112.2 161.3 103.8 163.4 95 163.4C50.7 163.4 16 131 16 89.7C16 48.4 50.7 16 95 16Z" fill="#FFC73F"/>
<path d="M115.3 74.9001C106.4 74.9001 102.8 84.9001 94.0998 85.2001V53.8001C94.0998 53.6001 94.2998 38.4001 103.2 30.4001C107.8 26.3001 114.2 24.6001 122.7 25.5001L124.9 3.60008C110 2.10008 97.5998 5.70008 88.2998 14.2001C72.3998 28.6001 71.9998 51.3001 72.0998 53.8001V85.2001C63.2998 84.9001 59.7998 74.9001 50.8998 74.9001C41.7998 74.9001 34.7998 81.7001 34.7998 90.0001C34.7998 98.3001 41.7998 105.1 50.8998 105.1C59.7998 105.1 63.3998 95.1001 72.0998 94.8001V171.7H94.0998V94.8001C102.9 95.1001 106.4 105.1 115.3 105.1C124.4 105.1 131.4 98.3001 131.4 90.0001C131.3 81.7001 124.3 74.9001 115.3 74.9001Z" fill="#FFC73F"/>
<path d="M162.501 177.4C159.501 177.4 157.201 176.6 155.501 174.9C153.801 173.2 153.001 170.7 153.001 167.5V34.7996C153.001 31.5996 153.801 29.0996 155.501 27.4996C157.201 25.8996 159.501 25.0996 162.501 25.0996C165.601 25.0996 168.001 25.8996 169.701 27.4996C171.401 29.0996 172.201 31.5996 172.201 34.7996V118.3H172.601L214.101 77.7996C216.201 75.6996 218.101 74.0996 219.801 72.8996C221.501 71.7996 223.701 71.1996 226.401 71.1996C229.101 71.1996 231.101 71.8996 232.501 73.1996C233.901 74.4996 234.601 76.1996 234.601 78.2996C234.601 80.2996 233.601 82.3996 231.601 84.2996L187.501 127.1V117.6L235.601 164C237.601 166 238.501 168 238.501 170.1C238.401 172.2 237.701 174 236.201 175.3C234.701 176.6 232.801 177.3 230.401 177.3C227.601 177.3 225.301 176.7 223.501 175.6C221.701 174.5 219.701 172.7 217.501 170.3L172.701 128H172.301V167.4C172.301 174.1 169.001 177.4 162.501 177.4Z" fill="#20124D"/>
<path d="M230.501 177.6C227.601 177.6 225.301 177 223.501 175.9C221.701 174.8 219.701 173 217.401 170.6L172.601 128.3H172.501V167.5C172.501 174.3 169.101 177.7 162.501 177.7C159.501 177.7 157.101 176.8 155.401 175.1C153.701 173.4 152.801 170.8 152.801 167.5V34.7998C152.801 31.4998 153.701 28.9998 155.401 27.2998C157.101 25.5998 159.501 24.7998 162.501 24.7998C165.701 24.7998 168.101 25.5998 169.901 27.2998C171.601 28.9998 172.501 31.4998 172.501 34.7998V118.1H172.601L214.101 77.6998C216.201 75.5998 218.101 73.8998 219.901 72.7998C221.601 71.6998 223.901 71.0998 226.601 71.0998C229.301 71.0998 231.401 71.7998 232.901 73.1998C234.401 74.5998 235.101 76.2998 235.101 78.3998C235.101 80.4998 234.101 82.5998 232.101 84.5998L193.101 122.5L236.101 164C238.101 166 239.101 168.1 239.001 170.3C238.901 172.5 238.101 174.3 236.601 175.6C235.001 176.9 233.001 177.6 230.501 177.6ZM172.001 127.8H172.701L172.801 127.9L217.701 170.3C219.901 172.7 222.001 174.5 223.701 175.6C225.401 176.7 227.701 177.3 230.501 177.3C232.801 177.3 234.701 176.6 236.201 175.3C237.601 174 238.401 172.3 238.501 170.3C238.601 168.3 237.601 166.2 235.701 164.3L192.701 122.8L187.601 127.8V117.2L192.701 122.2L231.701 84.2998C233.601 82.3998 234.601 80.3998 234.601 78.3998C234.601 76.3998 233.901 74.7998 232.501 73.4998C231.101 72.1998 229.101 71.4998 226.501 71.4998C223.901 71.4998 221.701 72.0998 220.101 73.1998C218.401 74.2998 216.501 75.9998 214.401 77.9998L172.801 118.5H172.001V34.7998C172.001 31.5998 171.201 29.1998 169.501 27.5998C167.901 25.9998 165.501 25.1998 162.401 25.1998C159.501 25.1998 157.201 25.9998 155.601 27.5998C154.001 29.1998 153.101 31.5998 153.101 34.7998V167.4C153.101 170.6 153.901 173 155.601 174.7C157.201 176.3 159.501 177.2 162.401 177.2C168.801 177.2 171.901 174 171.901 167.5V127.8H172.001ZM188.001 118.2V126.7L192.401 122.4L188.001 118.2Z" fill="#20124D"/>
<path d="M257.9 177.4C254.6 177.4 252.2 176.6 250.5 174.9C248.8 173.2 248 170.7 248 167.5V80.9998C248 77.7998 248.8 75.2998 250.5 73.6998C252.2 72.0998 254.5 71.2998 257.5 71.2998C260.5 71.2998 262.8 72.0998 264.4 73.6998C266 75.2998 266.8 77.7998 266.8 80.9998V97.2999H264.7C267 88.7999 271.2 82.3998 277.4 77.9998C283.6 73.5998 291.5 71.0998 300.9 70.5998C303.2 70.4998 305 70.9998 306.4 72.1998C307.8 73.3998 308.6 75.3998 308.7 78.1998C308.8 80.8998 308.2 82.9998 306.8 84.6998C305.4 86.2998 303.2 87.2998 300.2 87.5998L296.4 87.7999C287.1 88.7999 279.9 91.7998 274.9 96.8998C269.9 102 267.4 109 267.4 117.9V167.5C267.4 170.8 266.6 173.2 265 174.9C263.3 176.5 261 177.4 257.9 177.4Z" fill="#20124D"/>
<path d="M257.9 177.6C254.6 177.6 252.1 176.7 250.3 175C248.6 173.3 247.7 170.7 247.7 167.4V81C247.7 77.7 248.6 75.2 250.3 73.5C252 71.8 254.4 71 257.4 71C260.4 71 262.8 71.8 264.4 73.5C266.1 75.2 266.9 77.7 266.9 81V90.2C269.3 85.1 272.8 80.9 277.1 77.8C283.3 73.4 291.3 70.9 300.7 70.3C303 70.2 304.9 70.7 306.4 71.9C307.9 73.1 308.7 75.2 308.8 78.1C308.9 80.8 308.3 83.1 306.8 84.7C305.4 86.4 303.1 87.4 300.1 87.6L296.3 87.8C287.1 88.8 279.9 91.8 274.9 96.8C270 101.8 267.4 108.8 267.4 117.6V167.2C267.4 170.5 266.6 173 264.9 174.8C263.5 176.7 261 177.6 257.9 177.6ZM257.4 71.5C254.5 71.5 252.2 72.3 250.6 73.9C249 75.5 248.1 77.9 248.1 81.1V167.6C248.1 170.8 248.9 173.2 250.6 174.9C252.2 176.5 254.7 177.4 257.9 177.4C260.9 177.4 263.3 176.6 264.8 174.9C266.4 173.3 267.2 170.8 267.2 167.6V118C267.2 109.1 269.8 102 274.8 96.9C279.8 91.8 287.1 88.7 296.4 87.7L300.2 87.5C303.1 87.2 305.2 86.3 306.6 84.7C308 83.1 308.6 81 308.5 78.4C308.4 75.7 307.6 73.7 306.2 72.5C304.8 71.3 303 70.8 300.8 71C291.4 71.6 283.5 74 277.4 78.4C272.8 81.6 269.3 86 266.9 91.5V97.8H264.3L264.4 97.5C265 95.3 265.7 93.3 266.5 91.4V81C266.5 77.8 265.7 75.4 264.1 73.8C262.6 72.3 260.3 71.5 257.4 71.5ZM264.9 97.1H266.5V92.3C265.9 93.8 265.4 95.4 264.9 97.1Z" fill="#20124D"/>
<path d="M344.301 177.8C337.201 177.8 330.801 176.4 325.101 173.6C319.401 170.8 314.901 167 311.801 162.2C308.601 157.4 307.001 152 307.001 146.1C307.001 138.5 308.901 132.5 312.701 128.1C316.501 123.7 322.901 120.6 332.001 118.7C341.001 116.8 353.201 115.8 368.401 115.8H378.401V128H368.901C358.001 128 349.401 128.5 343.201 129.5C336.901 130.5 332.501 132.2 330.001 134.7C327.501 137.2 326.201 140.6 326.201 145C326.201 150.5 328.101 155 332.001 158.6C335.901 162.1 341.201 163.9 348.001 163.9C353.401 163.9 358.101 162.6 362.201 160C366.301 157.4 369.501 153.9 371.901 149.4C374.301 145 375.501 139.8 375.501 134V109.6C375.501 101.3 373.801 95.1999 370.401 91.4999C367.001 87.7999 361.301 85.8999 353.201 85.8999C348.501 85.8999 343.701 86.4999 338.801 87.7999C333.901 89.0999 328.701 91.0999 323.301 93.6999C321.201 94.6999 319.301 94.9999 317.801 94.6999C316.201 94.2999 315.001 93.4999 314.101 92.1999C313.201 90.8999 312.701 89.3999 312.601 87.7999C312.501 86.1999 312.901 84.5999 313.701 82.9999C314.501 81.3999 315.901 80.2999 317.801 79.5999C324.001 76.4999 330.201 74.2999 336.301 72.8999C342.401 71.5999 348.201 70.8999 353.601 70.8999C362.801 70.8999 370.301 72.3999 376.301 75.1999C382.201 78.0999 386.701 82.4999 389.601 88.4999C392.601 94.4999 394.001 102.2 394.001 111.5V167.4C394.001 170.7 393.201 173.1 391.701 174.8C390.101 176.5 387.901 177.3 384.901 177.3C382.101 177.3 379.801 176.5 378.201 174.8C376.601 173.1 375.801 170.6 375.801 167.4V152.4H377.701C376.601 157.6 374.401 162.1 371.301 166C368.201 169.8 364.301 172.7 359.801 174.8C355.301 176.8 350.101 177.8 344.301 177.8Z" fill="#20124D"/>
<path d="M344.301 178C337.201 178 330.801 176.6 325.001 173.7C319.301 170.9 314.801 167 311.601 162.2C308.401 157.4 306.801 151.9 306.801 146C306.801 138.4 308.701 132.2 312.601 127.8C316.401 123.4 323.001 120.2 332.001 118.3C341.001 116.4 353.301 115.4 368.501 115.4H375.301V109.5C375.301 101.3 373.601 95.2 370.301 91.5C367.001 87.8 361.201 86 353.301 86C348.701 86 343.801 86.6 338.901 87.9C334.001 89.2 328.801 91.1 323.501 93.8C321.301 94.8 319.401 95.1 317.801 94.8C316.201 94.4 314.901 93.6 314.001 92.2C313.101 90.8 312.501 89.3 312.501 87.6C312.401 85.9 312.801 84.3 313.601 82.7C314.401 81.1 315.801 79.9 317.901 79.2C324.101 76.1 330.301 73.9 336.501 72.5C342.601 71.2 348.501 70.5 353.801 70.5C363.001 70.5 370.601 72 376.601 74.9C382.501 77.8 387.101 82.3 390.101 88.3C393.101 94.3 394.601 102.1 394.601 111.4V167.3C394.601 170.6 393.801 173.1 392.201 174.9C390.601 176.6 388.301 177.5 385.301 177.5C382.401 177.5 380.101 176.6 378.501 174.9C376.801 173.2 376.001 170.6 376.001 167.3V159.4C374.901 161.8 373.601 164 371.901 165.9C368.801 169.7 364.901 172.7 360.301 174.8C355.401 177 350.101 178 344.301 178ZM368.501 116C353.301 116 341.101 117 332.101 118.9C323.201 120.8 316.701 123.9 312.901 128.3C309.101 132.6 307.201 138.6 307.201 146.2C307.201 152.1 308.801 157.4 311.901 162.2C315.001 166.9 319.501 170.8 325.201 173.6C330.901 176.4 337.301 177.8 344.301 177.8C350.001 177.8 355.201 176.8 359.801 174.7C364.301 172.7 368.201 169.7 371.301 166C373.101 163.8 374.601 161.3 375.701 158.6V152.3H378.101L378.001 152.6C377.501 154.7 376.901 156.8 376.101 158.7V167.6C376.101 170.8 376.901 173.2 378.501 174.9C380.101 176.5 382.301 177.4 385.001 177.4C387.901 177.4 390.101 176.6 391.601 174.9C393.101 173.3 393.901 170.8 393.901 167.6V111.7C393.901 102.5 392.401 94.8 389.501 88.8C386.601 82.9 382.101 78.4 376.301 75.6C370.401 72.7 362.801 71.3 353.701 71.3C348.401 71.3 342.601 72 336.501 73.3C330.401 74.6 324.201 76.9 318.001 80C316.101 80.7 314.701 81.8 314.001 83.3C313.201 84.8 312.901 86.4 313.001 88C313.101 89.6 313.601 91 314.401 92.3C315.301 93.6 316.501 94.4 318.001 94.8C319.501 95.1 321.301 94.8 323.401 93.9C328.801 91.2 334.001 89.2 338.901 88C343.801 86.7 348.701 86.1 353.401 86.1C361.501 86.1 367.301 88 370.701 91.8C374.101 95.6 375.801 101.7 375.801 110.1V116H378.801V128.7H375.801V134.4C375.801 140.2 374.601 145.4 372.201 149.9C369.801 154.4 366.501 158 362.401 160.6C358.301 163.2 353.501 164.6 348.101 164.6C341.301 164.6 335.901 162.8 332.001 159.2C328.101 155.6 326.101 151 326.101 145.5C326.101 141.1 327.401 137.6 330.001 135.1C332.601 132.6 337.101 130.8 343.401 129.8C349.701 128.8 358.401 128.3 369.201 128.3H375.501V116H368.501ZM368.901 128.2C358.101 128.2 349.401 128.7 343.201 129.7C337.001 130.7 332.601 132.4 330.101 134.8C327.601 137.2 326.401 140.6 326.401 144.9C326.401 150.3 328.301 154.8 332.201 158.3C336.001 161.8 341.401 163.5 348.001 163.5C353.301 163.5 358.001 162.2 362.101 159.6C366.101 157 369.401 153.5 371.801 149.1C374.201 144.7 375.401 139.6 375.401 133.8V128.1H368.901V128.2ZM376.101 152.6V157.3C376.701 155.8 377.101 154.2 377.501 152.6H376.101ZM375.701 127.8H378.201V116H375.701V127.8Z" fill="#20124D"/>
<path d="M121.5 177C118.5 177 116.2 176.1 114.5 174.2C112.8 172.3 112 169.8 112 166.6V128C112 124.6 112.8 122 114.5 120.3C116.2 118.5 118.5 117.7 121.5 117.7C124.6 117.7 127 118.6 128.7 120.3C130.4 122.1 131.2 124.6 131.2 128V166.6C131.2 169.9 130.4 172.4 128.8 174.2C127.2 176 124.7 177 121.5 177Z" fill="#20124D"/>
<path d="M121.5 177.2C118.5 177.2 116.1 176.2 114.3 174.4C112.6 172.5 111.7 169.9 111.7 166.6V128C111.7 124.6 112.6 121.9 114.3 120.1C116 118.3 118.4 117.4 121.5 117.4C124.7 117.4 127.1 118.3 128.9 120.1C130.6 121.9 131.5 124.6 131.5 128V166.6C131.5 169.9 130.7 172.5 129 174.4C127.3 176.2 124.8 177.2 121.5 177.2ZM121.5 117.8C118.6 117.8 116.3 118.7 114.7 120.4C113.1 122.1 112.2 124.7 112.2 128V166.6C112.2 169.8 113 172.3 114.7 174.1C116.3 175.9 118.6 176.8 121.5 176.8C124.7 176.8 127.1 175.9 128.6 174.1C130.2 172.3 131 169.8 131 166.6V128C131 124.7 130.2 122.1 128.5 120.4C126.9 118.7 124.5 117.8 121.5 117.8Z" fill="#20124D"/>
<path d="M45.2002 177C42.2002 177 39.9002 176.1 38.2002 174.2C36.5002 172.4 35.7002 169.8 35.7002 166.6V128C35.7002 124.6 36.5002 122 38.2002 120.3C39.9002 118.5 42.2002 117.7 45.2002 117.7C48.3002 117.7 50.7002 118.6 52.4002 120.3C54.1002 122.1 54.9002 124.6 54.9002 128V166.6C54.9002 169.9 54.1002 172.4 52.5002 174.2C50.9002 176 48.5002 177 45.2002 177Z" fill="#20124D"/>
<path d="M45.2004 177.2C42.2004 177.2 39.8004 176.2 38.0004 174.4C36.3004 172.5 35.4004 169.9 35.4004 166.6V128C35.4004 124.6 36.3004 121.9 38.0004 120.1C39.7004 118.3 42.1004 117.4 45.2004 117.4C48.4004 117.4 50.8004 118.3 52.6004 120.1C54.3004 121.9 55.2004 124.6 55.2004 128V166.6C55.2004 169.9 54.4004 172.5 52.7004 174.4C51.1004 176.2 48.5004 177.2 45.2004 177.2ZM45.2004 117.8C42.3004 117.8 40.0004 118.7 38.4004 120.4C36.8004 122.1 35.9004 124.7 35.9004 128V166.6C35.9004 169.8 36.7004 172.3 38.4004 174.1C40.0004 175.9 42.3004 176.8 45.2004 176.8C48.4004 176.8 50.8004 175.9 52.3004 174.1C53.9004 172.3 54.7004 169.8 54.7004 166.6V128C54.7004 124.7 53.9004 122.1 52.2004 120.4C50.6004 118.7 48.3004 117.8 45.2004 117.8Z" fill="#20124D"/>
<path d="M406.7 195C406.5 195 406.4 195 406.3 194.8C406.2 194.7 406.2 194.6 406.2 194.4V186C406.2 185.8 406.2 185.7 406.3 185.6C406.4 185.5 406.5 185.5 406.7 185.5H409.8C410.8 185.5 411.5 185.7 412 186.2C412.5 186.7 412.8 187.3 412.8 188.2C412.8 188.8 412.7 189.2 412.4 189.6C412.2 190 411.8 190.3 411.4 190.5C410.9 190.7 410.4 190.8 409.8 190.8L409.9 190.6H410.2C410.5 190.6 410.8 190.7 411.1 190.9C411.3 191.1 411.6 191.4 411.8 191.8L413 194.2C413.1 194.3 413.1 194.4 413.1 194.6C413.1 194.7 413.1 194.8 413 194.9C412.9 195 412.8 195 412.7 195C412.6 195 412.4 195 412.3 194.9C412.2 194.8 412.1 194.7 412.1 194.6L410.7 191.9C410.5 191.5 410.3 191.3 410 191.1C409.7 191 409.4 190.9 409 190.9H407.3V194.4C407.3 194.6 407.3 194.7 407.2 194.8C407 194.9 406.9 195 406.7 195ZM407.2 190H409.6C410.3 190 410.8 189.8 411.2 189.5C411.6 189.2 411.7 188.7 411.7 188.1C411.7 187.5 411.5 187 411.2 186.7C410.8 186.4 410.3 186.2 409.6 186.2H407.2V190Z" fill="#20124D"/>
<path d="M409.6 198.6C405 198.6 401.2 194.8 401.2 190.2C401.2 185.6 405 181.8 409.6 181.8C414.2 181.8 418 185.6 418 190.2C418 194.8 414.2 198.6 409.6 198.6ZM409.6 182.5C405.4 182.5 401.9 185.9 401.9 190.2C401.9 194.4 405.3 197.9 409.6 197.9C413.9 197.9 417.3 194.5 417.3 190.2C417.3 186 413.8 182.5 409.6 182.5Z" fill="#20124D"/>
<path d="M36.0002 196.2C35.4002 196.2 35.0002 196.1 34.7002 195.8C34.4002 195.5 34.2002 195.1 34.2002 194.6C34.2002 194.1 34.4002 193.7 34.7002 193.4C35.0002 193.1 35.4002 193 36.0002 193C36.6002 193 37.0002 193.1 37.3002 193.4C37.6002 193.7 37.7002 194.1 37.7002 194.6C37.7002 195.1 37.5002 195.5 37.3002 195.8C37.0002 196.1 36.6002 196.2 36.0002 196.2ZM36.0002 210.5C35.5002 210.5 35.2002 210.4 34.9002 210.1C34.6002 209.8 34.5002 209.4 34.5002 208.9V200.1C34.5002 199.6 34.6002 199.2 34.9002 198.9C35.2002 198.6 35.5002 198.5 36.0002 198.5C36.5002 198.5 36.8002 198.6 37.1002 198.9C37.4002 199.2 37.5002 199.6 37.5002 200.1V208.9C37.5002 209.4 37.4002 209.8 37.1002 210.1C36.9002 210.3 36.5002 210.5 36.0002 210.5Z" fill="#8AC054"/>
<path d="M49.4004 210.5C48.9004 210.5 48.6004 210.4 48.3004 210.1C48.0004 209.8 47.9004 209.5 47.9004 209V200C47.9004 199.5 48.0004 199.1 48.3004 198.9C48.6004 198.6 48.9004 198.5 49.4004 198.5C49.9004 198.5 50.2004 198.6 50.5004 198.9C50.8004 199.2 50.9004 199.5 50.9004 200V201.6L50.6004 201C50.9004 200.2 51.5004 199.5 52.2004 199.1C52.9004 198.7 53.8004 198.4 54.7004 198.4C55.6004 198.4 56.4004 198.6 57.0004 198.9C57.6004 199.3 58.0004 199.8 58.3004 200.5C58.6004 201.2 58.7004 202.1 58.7004 203.2V209C58.7004 209.5 58.6004 209.9 58.3004 210.1C58.0004 210.4 57.7004 210.5 57.2004 210.5C56.7004 210.5 56.4004 210.4 56.1004 210.1C55.8004 209.8 55.7004 209.5 55.7004 209V203.4C55.7004 202.5 55.5004 201.8 55.2004 201.4C54.9004 201 54.3004 200.8 53.6004 200.8C52.7004 200.8 52.0004 201.1 51.5004 201.6C51.0004 202.1 50.7004 202.9 50.7004 203.8V209C50.9004 210 50.4004 210.5 49.4004 210.5Z" fill="#8AC054"/>
<path d="M70.6006 210.5C70.1006 210.5 69.8006 210.4 69.5006 210.1C69.2006 209.8 69.1006 209.5 69.1006 209V200C69.1006 199.5 69.2006 199.1 69.5006 198.9C69.8006 198.6 70.1006 198.5 70.6006 198.5C71.1006 198.5 71.4006 198.6 71.7006 198.9C72.0006 199.2 72.1006 199.5 72.1006 200V201.6L71.8006 201C72.1006 200.2 72.7006 199.5 73.4006 199.1C74.1006 198.7 75.0006 198.4 75.9006 198.4C76.8006 198.4 77.6006 198.6 78.2006 198.9C78.8006 199.3 79.2006 199.8 79.5006 200.5C79.8006 201.2 79.9006 202.1 79.9006 203.2V209C79.9006 209.5 79.8006 209.9 79.5006 210.1C79.2006 210.4 78.9006 210.5 78.4006 210.5C77.9006 210.5 77.6006 210.4 77.3006 210.1C77.0006 209.8 76.9006 209.5 76.9006 209V203.4C76.9006 202.5 76.7006 201.8 76.4006 201.4C76.1006 201 75.5006 200.8 74.8006 200.8C73.9006 200.8 73.2006 201.1 72.7006 201.6C72.2006 202.1 71.9006 202.9 71.9006 203.8V209C72.1006 210 71.6006 210.5 70.6006 210.5Z" fill="#8AC054"/>
<path d="M95.6002 210.6C94.4002 210.6 93.4002 210.4 92.5002 209.9C91.6002 209.4 90.9002 208.7 90.4002 207.8C89.9002 206.9 89.7002 205.8 89.7002 204.6C89.7002 203.7 89.8002 202.8 90.1002 202.1C90.4002 201.4 90.8002 200.7 91.3002 200.2C91.8002 199.7 92.4002 199.3 93.2002 199C93.9002 198.7 94.7002 198.6 95.6002 198.6C96.8002 198.6 97.8002 198.8 98.7002 199.3C99.6002 199.8 100.3 200.5 100.8 201.4C101.3 202.3 101.5 203.4 101.5 204.6C101.5 205.5 101.4 206.4 101.1 207.1C100.8 207.8 100.4 208.5 99.9002 209C99.4002 209.5 98.8002 209.9 98.0002 210.2C97.3002 210.4 96.5002 210.6 95.6002 210.6ZM95.6002 208.3C96.2002 208.3 96.7002 208.2 97.1002 207.9C97.5002 207.6 97.9002 207.2 98.1002 206.6C98.3002 206 98.5002 205.3 98.5002 204.5C98.5002 203.2 98.2002 202.3 97.7002 201.6C97.2002 201 96.5002 200.7 95.6002 200.7C95.0002 200.7 94.5002 200.8 94.1002 201.1C93.7002 201.4 93.3002 201.8 93.1002 202.4C92.9002 203 92.7002 203.7 92.7002 204.5C92.7002 205.8 93.0002 206.7 93.5002 207.4C94.0002 208 94.7002 208.3 95.6002 208.3Z" fill="#8AC054"/>
<path d="M115.801 210.5C115.401 210.5 115.101 210.4 114.801 210.2C114.501 210 114.301 209.7 114.101 209.2L110.301 200.4C110.201 200 110.101 199.7 110.101 199.4C110.101 199.1 110.301 198.9 110.501 198.7C110.701 198.5 111.101 198.4 111.501 198.4C111.901 198.4 112.201 198.5 112.401 198.7C112.601 198.9 112.801 199.2 113.001 199.6L116.201 207.7H115.501L118.801 199.6C119.001 199.2 119.201 198.8 119.401 198.7C119.601 198.5 119.901 198.4 120.301 198.4C120.601 198.4 120.901 198.5 121.101 198.7C121.301 198.9 121.401 199.1 121.501 199.4C121.501 199.7 121.501 200 121.301 200.4L117.501 209.2C117.301 209.6 117.101 209.9 116.801 210.2C116.501 210.4 116.201 210.5 115.801 210.5Z" fill="#8AC054"/>
<path d="M134.5 210.6C133.7 210.6 132.9 210.4 132.3 210.1C131.6 209.8 131.1 209.3 130.8 208.8C130.4 208.2 130.2 207.6 130.2 206.9C130.2 206 130.4 205.4 130.9 204.9C131.3 204.4 132.1 204 133.1 203.8C134.1 203.6 135.4 203.5 137.1 203.5H138.3V205.2H137C136 205.2 135.2 205.2 134.7 205.3C134.1 205.4 133.7 205.6 133.5 205.8C133.3 206 133.1 206.4 133.1 206.8C133.1 207.3 133.3 207.8 133.6 208.1C134 208.4 134.5 208.6 135.1 208.6C135.6 208.6 136.1 208.5 136.5 208.2C136.9 208 137.2 207.6 137.5 207.2C137.7 206.8 137.9 206.3 137.9 205.7V203C137.9 202.2 137.7 201.6 137.4 201.3C137.1 200.9 136.5 200.8 135.6 200.8C135.1 200.8 134.6 200.9 134.1 201C133.6 201.1 133 201.3 132.4 201.6C132.1 201.7 131.8 201.8 131.6 201.7C131.4 201.6 131.2 201.5 131.1 201.3C131 201.1 130.9 200.9 130.9 200.6C130.9 200.3 131 200.1 131.1 199.9C131.2 199.7 131.4 199.5 131.7 199.4C132.4 199.1 133.1 198.9 133.8 198.8C134.5 198.7 135.1 198.6 135.6 198.6C136.7 198.6 137.7 198.8 138.4 199.1C139.1 199.5 139.7 200 140 200.7C140.4 201.4 140.5 202.3 140.5 203.4V209.1C140.5 209.6 140.4 210 140.1 210.2C139.9 210.5 139.5 210.6 139.1 210.6C138.7 210.6 138.3 210.5 138.1 210.2C137.9 209.9 137.7 209.6 137.7 209.1V208H137.9C137.8 208.6 137.6 209 137.2 209.4C136.9 209.8 136.5 210.1 136 210.3C135.7 210.4 135.1 210.6 134.5 210.6Z" fill="#8AC054"/>
<path d="M156.3 210.6C155.3 210.6 154.4 210.4 153.7 210.1C153 209.7 152.5 209.2 152.2 208.6C151.9 208 151.7 207.1 151.7 206.1V201H150.5C150.1 201 149.8 200.9 149.6 200.7C149.4 200.5 149.3 200.2 149.3 199.9C149.3 199.5 149.4 199.3 149.6 199.1C149.8 198.9 150.1 198.8 150.5 198.8H151.7V196.6C151.7 196.1 151.8 195.7 152.1 195.5C152.4 195.2 152.7 195.1 153.2 195.1C153.7 195.1 154 195.2 154.3 195.5C154.6 195.8 154.7 196.1 154.7 196.6V198.8H157.2C157.6 198.8 157.9 198.9 158.1 199.1C158.3 199.3 158.4 199.6 158.4 199.9C158.4 200.3 158.3 200.5 158.1 200.7C157.9 200.9 157.6 201 157.2 201H154.7V205.9C154.7 206.7 154.9 207.2 155.2 207.6C155.5 208 156.1 208.2 156.8 208.2C157.1 208.2 157.3 208.2 157.5 208.1C157.7 208.1 157.9 208 158 208C158.2 208 158.3 208 158.5 208.2C158.6 208.3 158.7 208.6 158.7 209C158.7 209.3 158.6 209.6 158.5 209.8C158.4 210 158.2 210.2 157.9 210.3C157.7 210.4 157.4 210.4 157.1 210.5C156.8 210.5 156.5 210.6 156.3 210.6Z" fill="#8AC054"/>
<path d="M169.2 196.2C168.6 196.2 168.2 196.1 167.9 195.8C167.6 195.5 167.4 195.1 167.4 194.6C167.4 194.1 167.6 193.7 167.9 193.4C168.2 193.1 168.6 193 169.2 193C169.8 193 170.2 193.1 170.5 193.4C170.8 193.7 170.9 194.1 170.9 194.6C170.9 195.1 170.7 195.5 170.5 195.8C170.2 196.1 169.8 196.2 169.2 196.2ZM169.2 210.5C168.7 210.5 168.4 210.4 168.1 210.1C167.8 209.8 167.7 209.4 167.7 208.9V200.1C167.7 199.6 167.8 199.2 168.1 198.9C168.4 198.6 168.7 198.5 169.2 198.5C169.7 198.5 170 198.6 170.3 198.9C170.6 199.2 170.7 199.6 170.7 200.1V208.9C170.7 209.4 170.6 209.8 170.3 210.1C170.1 210.3 169.7 210.5 169.2 210.5Z" fill="#8AC054"/>
<path d="M185.801 210.5C185.401 210.5 185.101 210.4 184.801 210.2C184.501 210 184.301 209.7 184.101 209.2L180.301 200.4C180.201 200 180.101 199.7 180.101 199.4C180.101 199.1 180.301 198.9 180.501 198.7C180.701 198.5 181.101 198.4 181.501 198.4C181.901 198.4 182.201 198.5 182.401 198.7C182.601 198.9 182.801 199.2 183.001 199.6L186.201 207.7H185.501L188.801 199.6C189.001 199.2 189.201 198.8 189.401 198.7C189.601 198.5 189.901 198.4 190.301 198.4C190.601 198.4 190.901 198.5 191.101 198.7C191.301 198.9 191.401 199.1 191.501 199.4C191.501 199.7 191.501 200 191.301 200.4L187.501 209.2C187.301 209.6 187.101 209.9 186.801 210.2C186.601 210.4 186.201 210.5 185.801 210.5Z" fill="#8AC054"/>
<path d="M206.4 210.6C205.1 210.6 204 210.4 203 209.9C202.1 209.4 201.3 208.7 200.8 207.8C200.3 206.9 200 205.8 200 204.6C200 203.4 200.2 202.3 200.7 201.4C201.2 200.5 201.9 199.8 202.8 199.3C203.7 198.8 204.7 198.5 205.8 198.5C206.6 198.5 207.4 198.6 208 198.9C208.7 199.2 209.2 199.6 209.7 200.1C210.2 200.6 210.5 201.2 210.8 202C211 202.7 211.2 203.5 211.2 204.4C211.2 204.7 211.1 204.9 210.9 205.1C210.7 205.3 210.4 205.3 210.1 205.3H202.5V203.6H209.1L208.7 204C208.7 203.3 208.6 202.7 208.4 202.2C208.2 201.7 207.9 201.3 207.5 201.1C207.1 200.8 206.6 200.7 206 200.7C205.3 200.7 204.8 200.9 204.3 201.2C203.8 201.5 203.5 201.9 203.2 202.5C203 203.1 202.8 203.7 202.8 204.5V204.7C202.8 206 203.1 207 203.7 207.6C204.3 208.2 205.2 208.6 206.4 208.6C206.8 208.6 207.3 208.5 207.8 208.4C208.3 208.3 208.8 208.1 209.3 207.9C209.6 207.7 209.9 207.6 210.2 207.6C210.5 207.6 210.7 207.7 210.8 207.9C210.9 208.1 211 208.3 211.1 208.5C211.1 208.7 211.1 209 211 209.2C210.9 209.4 210.7 209.6 210.4 209.8C209.8 210.2 209.2 210.4 208.5 210.6C207.7 210.5 207 210.6 206.4 210.6Z" fill="#8AC054"/>
<path d="M238.901 210.6C238.201 210.6 237.501 210.5 236.701 210.4C235.901 210.3 235.301 210 234.701 209.7C234.401 209.5 234.301 209.4 234.201 209.1C234.101 208.9 234.101 208.7 234.101 208.5C234.101 208.3 234.201 208.1 234.301 207.9C234.401 207.7 234.601 207.6 234.801 207.6C235.001 207.6 235.201 207.6 235.501 207.7C236.101 208 236.701 208.2 237.301 208.3C237.901 208.4 238.401 208.5 238.901 208.5C239.701 208.5 240.201 208.4 240.601 208.1C241.001 207.8 241.201 207.5 241.201 207.1C241.201 206.7 241.101 206.5 240.801 206.3C240.601 206.1 240.201 206 239.701 205.9L237.301 205.4C236.301 205.2 235.601 204.8 235.101 204.3C234.601 203.8 234.301 203.1 234.301 202.2C234.301 201.4 234.501 200.8 234.901 200.2C235.301 199.6 235.901 199.2 236.601 198.9C237.301 198.6 238.201 198.4 239.201 198.4C239.901 198.4 240.501 198.5 241.201 198.6C241.801 198.8 242.401 199 243.001 199.3C243.201 199.4 243.401 199.6 243.501 199.8C243.601 200 243.601 200.2 243.601 200.4C243.601 200.6 243.501 200.8 243.301 201C243.101 201.2 243.001 201.3 242.801 201.3C242.601 201.3 242.301 201.3 242.101 201.2C241.601 200.9 241.101 200.8 240.701 200.7C240.301 200.6 239.801 200.5 239.401 200.5C238.601 200.5 238.101 200.6 237.701 200.9C237.301 201.2 237.101 201.5 237.101 202C237.101 202.3 237.201 202.6 237.401 202.8C237.601 203 238.001 203.2 238.401 203.3L240.801 203.8C241.801 204 242.601 204.3 243.101 204.9C243.601 205.4 243.901 206.1 243.901 207C243.901 208.2 243.401 209.1 242.601 209.7C241.601 210.2 240.401 210.6 238.901 210.6Z" fill="#8AC054"/>
<path d="M258.8 210.6C257.6 210.6 256.6 210.4 255.7 209.9C254.8 209.4 254.1 208.7 253.6 207.8C253.1 206.9 252.9 205.8 252.9 204.6C252.9 203.7 253 202.8 253.3 202.1C253.6 201.4 254 200.7 254.5 200.2C255 199.7 255.6 199.3 256.4 199C257.1 198.7 257.9 198.6 258.8 198.6C260 198.6 261 198.8 261.9 199.3C262.8 199.8 263.5 200.5 264 201.4C264.5 202.3 264.7 203.4 264.7 204.6C264.7 205.5 264.6 206.4 264.3 207.1C264 207.8 263.6 208.5 263.1 209C262.6 209.5 262 209.9 261.2 210.2C260.6 210.4 259.7 210.6 258.8 210.6ZM258.8 208.3C259.4 208.3 259.9 208.2 260.3 207.9C260.7 207.6 261.1 207.2 261.3 206.6C261.5 206 261.7 205.3 261.7 204.5C261.7 203.2 261.4 202.3 260.9 201.6C260.4 201 259.7 200.7 258.8 200.7C258.2 200.7 257.7 200.8 257.3 201.1C256.9 201.4 256.5 201.8 256.3 202.4C256.1 203 255.9 203.7 255.9 204.5C255.9 205.8 256.2 206.7 256.7 207.4C257.3 208 258 208.3 258.8 208.3Z" fill="#8AC054"/>
<path d="M278.5 210.6C277.2 210.6 276.2 210.2 275.5 209.5C274.8 208.7 274.5 207.6 274.5 206.2V194.9C274.5 194.4 274.6 194 274.9 193.8C275.2 193.5 275.5 193.4 276 193.4C276.5 193.4 276.8 193.5 277.1 193.8C277.4 194.1 277.5 194.4 277.5 194.9V206.1C277.5 206.8 277.7 207.4 278 207.7C278.3 208 278.7 208.2 279.3 208.2C279.4 208.2 279.5 208.2 279.7 208.2C279.8 208.2 279.9 208.2 280 208.2C280.2 208.2 280.4 208.2 280.4 208.4C280.5 208.6 280.5 208.9 280.5 209.3C280.5 209.7 280.4 210 280.3 210.2C280.1 210.4 279.9 210.6 279.5 210.6C279.3 210.6 279.2 210.6 279 210.6C278.9 210.5 278.7 210.6 278.5 210.6Z" fill="#8AC054"/>
<path d="M293.6 210.6C292.6 210.6 291.8 210.4 291.2 210.1C290.6 209.7 290.1 209.2 289.8 208.5C289.5 207.8 289.3 206.9 289.3 205.8V200C289.3 199.5 289.4 199.1 289.7 198.9C290 198.7 290.3 198.5 290.8 198.5C291.3 198.5 291.6 198.6 291.9 198.9C292.2 199.1 292.3 199.5 292.3 200V205.8C292.3 206.6 292.5 207.2 292.8 207.6C293.1 208 293.7 208.2 294.4 208.2C295.2 208.2 295.8 207.9 296.3 207.4C296.8 206.9 297.1 206.1 297.1 205.2V199.9C297.1 199.4 297.2 199 297.5 198.8C297.8 198.6 298.1 198.4 298.6 198.4C299.1 198.4 299.4 198.5 299.7 198.8C300 199 300.1 199.4 300.1 199.9V208.9C300.1 209.9 299.6 210.4 298.7 210.4C298.2 210.4 297.9 210.3 297.6 210C297.3 209.7 297.2 209.4 297.2 208.9V207.1L297.5 207.8C297.2 208.7 296.7 209.3 296 209.8C295.4 210.3 294.6 210.6 293.6 210.6Z" fill="#8AC054"/>
<path d="M315.8 210.6C314.8 210.6 313.9 210.4 313.2 210.1C312.5 209.7 312 209.2 311.7 208.6C311.4 207.9 311.2 207.1 311.2 206.1V201H310C309.6 201 309.3 200.9 309.1 200.7C308.9 200.5 308.8 200.2 308.8 199.9C308.8 199.5 308.9 199.3 309.1 199.1C309.3 198.9 309.6 198.8 310 198.8H311.2V196.6C311.2 196.1 311.3 195.7 311.6 195.5C311.9 195.2 312.2 195.1 312.7 195.1C313.2 195.1 313.5 195.2 313.8 195.5C314.1 195.8 314.2 196.1 314.2 196.6V198.8H316.7C317.1 198.8 317.4 198.9 317.6 199.1C317.8 199.3 317.9 199.6 317.9 199.9C317.9 200.3 317.8 200.5 317.6 200.7C317.4 200.9 317.1 201 316.7 201H314.2V205.9C314.2 206.7 314.4 207.2 314.7 207.6C315 208 315.6 208.2 316.3 208.2C316.6 208.2 316.8 208.2 317 208.1C317.2 208.1 317.4 208 317.5 208C317.7 208 317.8 208 318 208.2C318.1 208.3 318.2 208.6 318.2 209C318.2 209.3 318.1 209.6 318 209.8C317.9 210 317.7 210.2 317.4 210.3C317.2 210.4 316.9 210.4 316.6 210.5C316.4 210.5 316.1 210.6 315.8 210.6Z" fill="#8AC054"/>
<path d="M328.7 196.2C328.1 196.2 327.7 196.1 327.4 195.8C327.1 195.5 326.9 195.1 326.9 194.6C326.9 194.1 327.1 193.7 327.4 193.4C327.7 193.1 328.1 193 328.7 193C329.3 193 329.7 193.1 330 193.4C330.3 193.7 330.4 194.1 330.4 194.6C330.4 195.1 330.2 195.5 330 195.8C329.8 196.1 329.3 196.2 328.7 196.2ZM328.7 210.5C328.2 210.5 327.9 210.4 327.6 210.1C327.3 209.8 327.2 209.4 327.2 208.9V200.1C327.2 199.6 327.3 199.2 327.6 198.9C327.9 198.6 328.2 198.5 328.7 198.5C329.2 198.5 329.5 198.6 329.8 198.9C330.1 199.2 330.2 199.6 330.2 200.1V208.9C330.2 209.4 330.1 209.8 329.8 210.1C329.6 210.3 329.2 210.5 328.7 210.5Z" fill="#8AC054"/>
<path d="M345.9 210.6C344.7 210.6 343.7 210.4 342.8 209.9C341.9 209.4 341.2 208.7 340.7 207.8C340.2 206.9 340 205.8 340 204.6C340 203.7 340.1 202.8 340.4 202.1C340.7 201.4 341.1 200.7 341.6 200.2C342.1 199.7 342.7 199.3 343.5 199C344.2 198.7 345 198.6 345.9 198.6C347.1 198.6 348.1 198.8 349 199.3C349.9 199.8 350.6 200.5 351.1 201.4C351.6 202.3 351.8 203.4 351.8 204.6C351.8 205.5 351.7 206.4 351.4 207.1C351.1 207.8 350.7 208.5 350.2 209C349.7 209.5 349.1 209.9 348.3 210.2C347.6 210.4 346.8 210.6 345.9 210.6ZM345.9 208.3C346.5 208.3 347 208.2 347.4 207.9C347.8 207.6 348.2 207.2 348.4 206.6C348.6 206 348.8 205.3 348.8 204.5C348.8 203.2 348.5 202.3 348 201.6C347.5 201 346.8 200.7 345.9 200.7C345.3 200.7 344.8 200.8 344.4 201.1C344 201.4 343.6 201.8 343.4 202.4C343.2 203 343 203.7 343 204.5C343 205.8 343.3 206.7 343.8 207.4C344.3 208 345.1 208.3 345.9 208.3Z" fill="#8AC054"/>
<path d="M363.101 210.5C362.601 210.5 362.301 210.4 362.001 210.1C361.701 209.8 361.601 209.5 361.601 209V200C361.601 199.5 361.701 199.1 362.001 198.9C362.301 198.6 362.601 198.5 363.101 198.5C363.601 198.5 363.901 198.6 364.201 198.9C364.501 199.2 364.601 199.5 364.601 200V201.6L364.301 201C364.601 200.2 365.201 199.5 365.901 199.1C366.601 198.7 367.501 198.4 368.401 198.4C369.301 198.4 370.101 198.6 370.701 198.9C371.301 199.3 371.701 199.8 372.001 200.5C372.301 201.2 372.401 202.1 372.401 203.2V209C372.401 209.5 372.301 209.9 372.001 210.1C371.701 210.4 371.401 210.5 370.901 210.5C370.401 210.5 370.101 210.4 369.801 210.1C369.501 209.8 369.401 209.5 369.401 209V203.4C369.401 202.5 369.201 201.8 368.901 201.4C368.601 201 368.001 200.8 367.301 200.8C366.401 200.8 365.701 201.1 365.201 201.6C364.701 202.1 364.401 202.9 364.401 203.8V209C364.601 210 364.101 210.5 363.101 210.5Z" fill="#8AC054"/>
<path d="M387.1 210.6C386.4 210.6 385.7 210.5 384.9 210.4C384.1 210.3 383.5 210 382.9 209.7C382.6 209.5 382.5 209.4 382.4 209.1C382.3 208.9 382.3 208.7 382.3 208.5C382.3 208.3 382.4 208.1 382.5 207.9C382.6 207.7 382.8 207.6 383 207.6C383.2 207.6 383.4 207.6 383.7 207.7C384.3 208 384.9 208.2 385.5 208.3C386.1 208.4 386.6 208.5 387.1 208.5C387.9 208.5 388.4 208.4 388.8 208.1C389.2 207.8 389.4 207.5 389.4 207.1C389.4 206.7 389.3 206.5 389 206.3C388.8 206.1 388.4 206 387.9 205.9L385.5 205.4C384.5 205.2 383.8 204.8 383.3 204.3C382.8 203.8 382.5 203.1 382.5 202.2C382.5 201.4 382.7 200.8 383.1 200.2C383.5 199.6 384.1 199.2 384.8 198.9C385.5 198.6 386.4 198.4 387.4 198.4C388.1 198.4 388.7 198.5 389.4 198.6C390 198.8 390.6 199 391.2 199.3C391.4 199.4 391.6 199.6 391.7 199.8C391.8 200 391.8 200.2 391.8 200.4C391.8 200.6 391.7 200.8 391.5 201C391.3 201.2 391.2 201.3 391 201.3C390.8 201.3 390.5 201.3 390.3 201.2C389.8 200.9 389.3 200.8 388.9 200.7C388.5 200.6 388 200.5 387.6 200.5C386.8 200.5 386.3 200.6 385.9 200.9C385.5 201.2 385.3 201.5 385.3 202C385.3 202.3 385.4 202.6 385.6 202.8C385.8 203 386.2 203.2 386.6 203.3L389 203.8C390 204 390.8 204.3 391.3 204.9C391.8 205.4 392.1 206.1 392.1 207C392.1 208.2 391.6 209.1 390.8 209.7C389.8 210.2 388.6 210.6 387.1 210.6Z" fill="#8AC054"/>
</svg>
