<svg width="512" height="512" viewBox="0 0 512 512" fill="none" xmlns="http://www.w3.org/2000/svg">
<path d="M0 256C0 114.615 114.615 0 256 0V0C397.385 0 512 114.615 512 256V256C512 397.385 397.385 512 256 512V512C114.615 512 0 397.385 0 256V256Z" fill="url(#paint0_linear_2805_6678)"/>
<path d="M373.56 337.65C346.36 337.65 327.96 322.65 310.16 308.15C293.66 294.75 278.16 282.05 256.26 281.95C256.26 281.95 256.26 281.95 256.16 281.95C234.36 281.95 218.76 294.65 202.36 308.15C184.56 322.65 166.16 337.75 139.06 337.75C113.56 337.75 89.7602 328.55 72.0602 311.75C54.3602 294.95 44.6602 272.55 44.6602 248.55C44.6602 224.55 54.3602 202.15 72.0602 185.35C89.7602 168.65 113.56 159.35 139.06 159.35C166.26 159.35 184.66 174.35 202.46 188.85C218.96 202.25 234.46 214.95 256.36 215.05C256.36 215.05 256.36 215.05 256.46 215.05C278.26 215.05 293.86 202.35 310.26 188.85C328.06 174.35 346.46 159.25 373.56 159.25C399.06 159.25 422.86 168.45 440.56 185.25C458.26 202.05 467.96 224.55 467.96 248.55C467.96 272.55 458.26 294.95 440.56 311.75C422.86 328.45 399.06 337.65 373.56 337.65ZM256.26 266.95C283.46 266.95 301.86 281.95 319.66 296.55C336.16 310.05 351.66 322.75 373.56 322.75C418.16 322.75 453.06 290.15 453.06 248.55C453.06 206.95 418.16 174.35 373.56 174.35C351.76 174.35 336.16 187.05 319.76 200.55C301.96 215.05 283.66 230.05 256.46 230.05C256.46 230.05 256.46 230.05 256.36 230.05C229.16 230.05 210.76 215.05 193.06 200.45C176.56 186.95 161.06 174.25 139.16 174.25C94.5602 174.25 59.6602 206.85 59.6602 248.45C59.6602 290.05 94.5602 322.65 139.16 322.65C160.96 322.65 176.56 309.95 192.96 296.45C210.76 282.05 229.06 266.95 256.26 266.95Z" fill="#8AC054"/>
<path d="M139.16 174.55C145.26 174.55 151.16 175.55 156.96 177.55C158.76 181.35 162.46 183.95 166.96 183.95C173.06 183.95 177.96 179.05 177.96 172.95C177.96 166.85 173.06 161.95 166.96 161.95C165.56 161.95 164.26 162.25 162.96 162.75C155.16 159.95 147.26 158.55 139.16 158.55C113.46 158.55 89.5602 167.85 71.7602 184.65C53.9602 201.55 44.1602 224.05 44.1602 248.25C44.1602 272.45 53.9602 294.95 71.7602 311.85C89.5602 328.65 113.46 337.95 139.16 337.95C150.56 337.95 161.26 335.35 172.06 329.85L171.76 329.25C173.46 327.85 174.46 325.75 174.46 323.45C174.46 319.35 171.06 315.95 166.96 315.95C166.36 315.95 165.76 316.05 165.16 316.15L164.86 315.55C156.36 319.85 147.96 321.95 139.16 321.95C94.8602 321.95 60.1602 289.55 60.1602 248.25C60.1602 206.95 94.8602 174.55 139.16 174.55Z" fill="#FFC73F"/>
<path d="M159.46 233.45C150.56 233.45 146.96 243.45 138.26 243.75V212.35C138.26 212.15 138.46 196.95 147.36 188.95C151.96 184.85 158.36 183.25 166.86 184.05L169.06 162.15C154.16 160.65 141.76 164.25 132.46 172.75C116.56 187.15 116.16 209.85 116.26 212.35V243.75C107.46 243.45 103.96 233.45 95.06 233.45C85.96 233.45 78.96 240.25 78.96 248.55C78.96 256.85 85.96 263.65 95.06 263.65C103.96 263.65 107.56 253.65 116.26 253.35V330.25H138.26V253.35C147.06 253.65 150.56 263.65 159.46 263.65C168.56 263.65 175.56 256.85 175.56 248.55C175.46 240.25 168.46 233.45 159.46 233.45Z" fill="#FFC73F"/>
<path d="M206.66 335.949C203.66 335.949 201.36 335.149 199.66 333.449C197.96 331.749 197.16 329.249 197.16 326.049V193.349C197.16 190.149 197.96 187.649 199.66 186.049C201.36 184.449 203.66 183.649 206.66 183.649C209.76 183.649 212.16 184.449 213.86 186.049C215.56 187.649 216.36 190.149 216.36 193.349V276.849H216.76L258.26 236.349C260.36 234.249 262.26 232.649 263.96 231.449C265.66 230.349 267.86 229.749 270.56 229.749C273.26 229.749 275.26 230.449 276.66 231.749C278.06 233.049 278.76 234.749 278.76 236.849C278.76 238.849 277.76 240.949 275.76 242.849L231.66 285.649V276.149L279.76 322.549C281.76 324.549 282.66 326.549 282.66 328.649C282.56 330.749 281.86 332.549 280.36 333.849C278.86 335.149 276.96 335.849 274.56 335.849C271.76 335.849 269.46 335.249 267.66 334.149C265.86 333.049 263.86 331.249 261.66 328.849L216.86 286.549H216.46V325.949C216.46 332.649 213.16 335.949 206.66 335.949Z" fill="white"/>
<path d="M274.66 336.15C271.76 336.15 269.46 335.55 267.66 334.45C265.86 333.35 263.86 331.55 261.56 329.15L216.76 286.85H216.66V326.05C216.66 332.85 213.26 336.25 206.66 336.25C203.66 336.25 201.26 335.35 199.56 333.65C197.86 331.95 196.96 329.35 196.96 326.05V193.35C196.96 190.05 197.86 187.55 199.56 185.85C201.26 184.15 203.66 183.35 206.66 183.35C209.76 183.35 212.26 184.15 214.06 185.85C215.76 187.55 216.66 190.05 216.66 193.35V276.65H216.76L258.26 236.25C260.36 234.15 262.26 232.45 264.06 231.35C265.76 230.25 268.06 229.65 270.76 229.65C273.46 229.65 275.56 230.35 277.06 231.75C278.56 233.15 279.26 234.85 279.26 236.95C279.26 239.05 278.26 241.15 276.26 243.15L237.26 281.05L280.26 322.55C282.26 324.55 283.26 326.65 283.16 328.85C283.06 331.05 282.26 332.85 280.76 334.15C279.16 335.45 277.16 336.15 274.66 336.15ZM216.16 286.35H216.86L216.96 286.45L261.86 328.85C264.06 331.25 266.16 333.05 267.86 334.15C269.56 335.25 271.86 335.85 274.66 335.85C276.96 335.85 278.86 335.15 280.36 333.85C281.76 332.55 282.56 330.85 282.66 328.85C282.76 326.85 281.76 324.75 279.86 322.85L236.86 281.35L231.76 286.35V275.75L236.86 280.75L275.86 242.85C277.76 240.95 278.76 238.95 278.76 236.95C278.76 234.95 278.06 233.35 276.66 232.05C275.26 230.75 273.26 230.05 270.66 230.05C268.06 230.05 265.86 230.65 264.26 231.75C262.56 232.85 260.66 234.55 258.56 236.55L216.96 277.05H216.16V193.35C216.16 190.15 215.36 187.75 213.66 186.15C212.06 184.55 209.66 183.75 206.56 183.75C203.66 183.75 201.36 184.55 199.76 186.15C198.16 187.75 197.26 190.15 197.26 193.35V325.95C197.26 329.15 198.06 331.55 199.76 333.25C201.36 334.85 203.66 335.75 206.56 335.75C212.96 335.75 216.06 332.55 216.06 326.05V286.35H216.16ZM232.16 276.75V285.25L236.56 280.95L232.16 276.75Z" fill="white"/>
<path d="M302.06 335.95C298.76 335.95 296.36 335.15 294.66 333.45C292.96 331.75 292.16 329.25 292.16 326.05V239.55C292.16 236.35 292.96 233.85 294.66 232.25C296.36 230.65 298.66 229.85 301.66 229.85C304.66 229.85 306.96 230.65 308.56 232.25C310.16 233.85 310.96 236.35 310.96 239.55V255.85H308.86C311.16 247.35 315.36 240.95 321.56 236.55C327.76 232.15 335.66 229.65 345.06 229.15C347.36 229.05 349.16 229.55 350.56 230.75C351.96 231.95 352.76 233.95 352.86 236.75C352.96 239.45 352.36 241.55 350.96 243.25C349.56 244.85 347.36 245.85 344.36 246.15L340.56 246.35C331.26 247.35 324.06 250.35 319.06 255.45C314.06 260.55 311.56 267.55 311.56 276.45V326.05C311.56 329.35 310.76 331.75 309.16 333.45C307.46 335.05 305.16 335.95 302.06 335.95Z" fill="white"/>
<path d="M302.06 336.15C298.76 336.15 296.26 335.25 294.46 333.55C292.76 331.85 291.86 329.25 291.86 325.95V239.55C291.86 236.25 292.76 233.75 294.46 232.05C296.16 230.35 298.56 229.55 301.56 229.55C304.56 229.55 306.96 230.35 308.56 232.05C310.26 233.75 311.06 236.25 311.06 239.55V248.75C313.46 243.65 316.96 239.45 321.26 236.35C327.46 231.95 335.46 229.45 344.86 228.85C347.16 228.75 349.06 229.25 350.56 230.45C352.06 231.65 352.86 233.75 352.96 236.65C353.06 239.35 352.46 241.65 350.96 243.25C349.56 244.95 347.26 245.85 344.26 246.15L340.46 246.35C331.26 247.35 324.06 250.35 319.06 255.35C314.16 260.35 311.56 267.35 311.56 276.15V325.75C311.56 329.05 310.76 331.55 309.06 333.35C307.66 335.25 305.16 336.15 302.06 336.15ZM301.56 230.05C298.66 230.05 296.36 230.85 294.76 232.45C293.16 234.05 292.26 236.45 292.26 239.55V326.05C292.26 329.25 293.06 331.65 294.76 333.35C296.36 334.95 298.86 335.85 302.06 335.85C305.06 335.85 307.46 335.05 308.96 333.35C310.56 331.75 311.36 329.25 311.36 326.05V276.45C311.36 267.55 313.96 260.45 318.96 255.35C323.96 250.25 331.26 247.15 340.56 246.15L344.36 245.95C347.26 245.65 349.36 244.75 350.76 243.15C352.16 241.55 352.76 239.45 352.66 236.85C352.56 234.15 351.76 232.15 350.36 230.95C348.96 229.75 347.16 229.25 344.96 229.45C335.56 230.05 327.66 232.45 321.56 236.85C316.96 240.05 313.46 244.45 311.06 249.95V256.25H308.46L308.56 255.95C309.16 253.75 309.86 251.75 310.66 249.85V239.55C310.66 236.35 309.86 233.95 308.26 232.35C306.76 230.85 304.46 230.05 301.56 230.05ZM309.06 255.65H310.66V250.85C310.06 252.35 309.56 253.95 309.06 255.65Z" fill="white"/>
<path d="M388.46 336.35C381.36 336.35 374.96 334.95 369.26 332.15C363.56 329.35 359.06 325.55 355.96 320.75C352.76 315.95 351.16 310.55 351.16 304.65C351.16 297.05 353.06 291.05 356.86 286.65C360.66 282.25 367.06 279.15 376.16 277.25C385.16 275.35 397.36 274.35 412.56 274.35H422.56V286.55H413.06C402.16 286.55 393.56 287.05 387.36 288.05C381.06 289.05 376.66 290.75 374.16 293.25C371.66 295.75 370.36 299.15 370.36 303.55C370.36 309.05 372.26 313.55 376.16 317.15C380.06 320.65 385.36 322.45 392.16 322.45C397.56 322.45 402.26 321.15 406.36 318.55C410.46 315.95 413.66 312.45 416.06 307.95C418.46 303.55 419.66 298.35 419.66 292.55V268.15C419.66 259.85 417.96 253.75 414.56 250.05C411.16 246.35 405.46 244.45 397.36 244.45C392.66 244.45 387.86 245.05 382.96 246.35C378.06 247.65 372.86 249.65 367.46 252.25C365.36 253.25 363.46 253.55 361.96 253.25C360.36 252.85 359.16 252.05 358.26 250.75C357.36 249.45 356.86 247.95 356.76 246.35C356.66 244.75 357.06 243.15 357.86 241.55C358.66 239.95 360.06 238.85 361.96 238.15C368.16 235.05 374.36 232.85 380.46 231.45C386.56 230.15 392.36 229.45 397.76 229.45C406.96 229.45 414.46 230.95 420.46 233.75C426.36 236.65 430.86 241.05 433.76 247.05C436.76 253.05 438.16 260.75 438.16 270.05V325.95C438.16 329.25 437.36 331.65 435.86 333.35C434.26 335.05 432.06 335.85 429.06 335.85C426.26 335.85 423.96 335.05 422.36 333.35C420.76 331.65 419.96 329.15 419.96 325.95V310.95H421.86C420.76 316.15 418.56 320.65 415.46 324.55C412.36 328.35 408.46 331.25 403.96 333.35C399.46 335.35 394.26 336.35 388.46 336.35Z" fill="white"/>
<path d="M388.46 336.55C381.36 336.55 374.96 335.15 369.16 332.25C363.46 329.45 358.96 325.55 355.76 320.75C352.56 315.95 350.96 310.45 350.96 304.55C350.96 296.95 352.86 290.75 356.76 286.35C360.56 281.95 367.16 278.75 376.16 276.85C385.16 274.95 397.46 273.95 412.66 273.95H419.46V268.05C419.46 259.85 417.76 253.75 414.46 250.05C411.16 246.35 405.36 244.55 397.46 244.55C392.86 244.55 387.96 245.15 383.06 246.45C378.16 247.75 372.96 249.65 367.66 252.35C365.46 253.35 363.56 253.65 361.96 253.35C360.36 252.95 359.06 252.15 358.16 250.75C357.26 249.35 356.66 247.85 356.66 246.15C356.56 244.45 356.96 242.85 357.76 241.25C358.56 239.65 359.96 238.45 362.06 237.75C368.26 234.65 374.46 232.45 380.66 231.05C386.76 229.75 392.66 229.05 397.96 229.05C407.16 229.05 414.76 230.55 420.76 233.45C426.76 236.35 431.26 240.85 434.26 246.85C437.26 252.85 438.76 260.65 438.76 269.95V325.85C438.76 329.15 437.96 331.65 436.36 333.45C434.76 335.15 432.46 336.05 429.46 336.05C426.56 336.05 424.26 335.15 422.66 333.45C420.96 331.75 420.16 329.15 420.16 325.85V317.95C419.06 320.35 417.76 322.55 416.06 324.45C412.96 328.25 409.06 331.25 404.46 333.35C399.56 335.55 394.26 336.55 388.46 336.55ZM412.66 274.55C397.46 274.55 385.26 275.55 376.26 277.45C367.36 279.35 360.86 282.45 357.06 286.85C353.26 291.15 351.36 297.15 351.36 304.75C351.36 310.65 352.96 315.95 356.06 320.75C359.16 325.45 363.66 329.35 369.36 332.15C375.06 334.95 381.46 336.35 388.46 336.35C394.16 336.35 399.36 335.35 403.96 333.25C408.46 331.25 412.36 328.25 415.46 324.55C417.26 322.35 418.76 319.85 419.86 317.15V310.85H422.26L422.16 311.15C421.66 313.25 421.06 315.35 420.26 317.25V326.15C420.26 329.35 421.06 331.75 422.66 333.45C424.26 335.05 426.46 335.95 429.16 335.95C432.06 335.95 434.26 335.15 435.76 333.45C437.26 331.85 438.06 329.35 438.06 326.15V270.25C438.06 261.05 436.56 253.35 433.66 247.35C430.76 241.45 426.26 236.95 420.46 234.15C414.56 231.25 406.96 229.85 397.86 229.85C392.56 229.85 386.76 230.55 380.66 231.85C374.56 233.15 368.36 235.45 362.16 238.55C360.26 239.25 358.86 240.35 358.16 241.85C357.36 243.35 357.06 244.95 357.16 246.55C357.26 248.15 357.76 249.55 358.56 250.85C359.46 252.15 360.66 252.95 362.16 253.35C363.66 253.65 365.46 253.35 367.56 252.45C372.96 249.75 378.16 247.75 383.06 246.55C387.96 245.25 392.86 244.65 397.56 244.65C405.66 244.65 411.46 246.55 414.86 250.35C418.26 254.15 419.96 260.25 419.96 268.65V274.55H422.96V287.25H419.96V292.95C419.96 298.75 418.76 303.95 416.36 308.45C413.96 312.95 410.66 316.55 406.56 319.15C402.46 321.75 397.66 323.15 392.26 323.15C385.46 323.15 380.06 321.35 376.16 317.75C372.26 314.15 370.26 309.55 370.26 304.05C370.26 299.65 371.56 296.15 374.16 293.65C376.76 291.15 381.26 289.35 387.56 288.35C393.86 287.35 402.56 286.85 413.36 286.85H419.66V274.55H412.66ZM413.06 286.75C402.26 286.75 393.56 287.25 387.36 288.25C381.16 289.25 376.76 290.95 374.26 293.35C371.76 295.75 370.56 299.15 370.56 303.45C370.56 308.85 372.46 313.35 376.36 316.85C380.16 320.35 385.56 322.05 392.16 322.05C397.46 322.05 402.16 320.75 406.26 318.15C410.26 315.55 413.56 312.05 415.96 307.65C418.36 303.25 419.56 298.15 419.56 292.35V286.65H413.06V286.75ZM420.26 311.15V315.85C420.86 314.35 421.26 312.75 421.66 311.15H420.26ZM419.86 286.35H422.36V274.55H419.86V286.35Z" fill="white"/>
<path d="M165.66 335.55C162.66 335.55 160.36 334.65 158.66 332.75C156.96 330.85 156.16 328.35 156.16 325.15V286.55C156.16 283.15 156.96 280.55 158.66 278.85C160.36 277.05 162.66 276.25 165.66 276.25C168.76 276.25 171.16 277.15 172.86 278.85C174.56 280.65 175.36 283.15 175.36 286.55V325.15C175.36 328.45 174.56 330.95 172.96 332.75C171.36 334.55 168.86 335.55 165.66 335.55Z" fill="white"/>
<path d="M165.66 335.75C162.66 335.75 160.26 334.75 158.46 332.95C156.76 331.05 155.86 328.45 155.86 325.15V286.55C155.86 283.15 156.76 280.45 158.46 278.65C160.16 276.85 162.56 275.95 165.66 275.95C168.86 275.95 171.26 276.85 173.06 278.65C174.76 280.45 175.66 283.15 175.66 286.55V325.15C175.66 328.45 174.86 331.05 173.16 332.95C171.46 334.75 168.96 335.75 165.66 335.75ZM165.66 276.35C162.76 276.35 160.46 277.25 158.86 278.95C157.26 280.65 156.36 283.25 156.36 286.55V325.15C156.36 328.35 157.16 330.85 158.86 332.65C160.46 334.45 162.76 335.35 165.66 335.35C168.86 335.35 171.26 334.45 172.76 332.65C174.36 330.85 175.16 328.35 175.16 325.15V286.55C175.16 283.25 174.36 280.65 172.66 278.95C171.06 277.25 168.66 276.35 165.66 276.35Z" fill="white"/>
<path d="M89.3599 335.55C86.3599 335.55 84.0599 334.65 82.3599 332.75C80.6599 330.95 79.8599 328.35 79.8599 325.15V286.55C79.8599 283.15 80.6599 280.55 82.3599 278.85C84.0599 277.05 86.3599 276.25 89.3599 276.25C92.4599 276.25 94.8599 277.15 96.5599 278.85C98.2599 280.65 99.0599 283.15 99.0599 286.55V325.15C99.0599 328.45 98.2599 330.95 96.6599 332.75C95.0599 334.55 92.6599 335.55 89.3599 335.55Z" fill="white"/>
<path d="M89.3601 335.75C86.3601 335.75 83.9601 334.75 82.1601 332.95C80.4601 331.05 79.5601 328.45 79.5601 325.15V286.55C79.5601 283.15 80.4601 280.45 82.1601 278.65C83.8601 276.85 86.2601 275.95 89.3601 275.95C92.5601 275.95 94.9601 276.85 96.7601 278.65C98.4601 280.45 99.3601 283.15 99.3601 286.55V325.15C99.3601 328.45 98.5601 331.05 96.8601 332.95C95.2601 334.75 92.6601 335.75 89.3601 335.75ZM89.3601 276.35C86.4601 276.35 84.1601 277.25 82.5601 278.95C80.9601 280.65 80.0601 283.25 80.0601 286.55V325.15C80.0601 328.35 80.8601 330.85 82.5601 332.65C84.1601 334.45 86.4601 335.35 89.3601 335.35C92.5601 335.35 94.9601 334.45 96.4601 332.65C98.0601 330.85 98.8601 328.35 98.8601 325.15V286.55C98.8601 283.25 98.0601 280.65 96.3601 278.95C94.7601 277.25 92.4601 276.35 89.3601 276.35Z" fill="white"/>
<defs>
<linearGradient id="paint0_linear_2805_6678" x1="256" y1="512" x2="256" y2="0" gradientUnits="userSpaceOnUse">
<stop stop-color="#3B196D"/>
<stop offset="0.6" stop-color="#20124D"/>
<stop offset="1" stop-color="#0D0A2D"/>
</linearGradient>
</defs>
</svg>
