<svg width="512" height="512" viewBox="0 0 512 512" fill="none" xmlns="http://www.w3.org/2000/svg">
<rect width="512" height="512" fill="url(#paint0_linear_2805_6572)"/>
<path d="M373.66 345.605C346.46 345.605 328.06 330.605 310.26 316.105C293.76 302.705 278.26 290.005 256.36 289.905C256.36 289.905 256.36 289.905 256.26 289.905C234.46 289.905 218.86 302.605 202.46 316.105C184.66 330.605 166.26 345.705 139.16 345.705C113.66 345.705 89.8598 336.505 72.1598 319.705C54.4598 302.905 44.7598 280.505 44.7598 256.505C44.7598 232.505 54.4598 210.105 72.1598 193.305C89.8598 176.605 113.66 167.305 139.16 167.305C166.36 167.305 184.76 182.305 202.56 196.805C219.06 210.205 234.56 222.905 256.46 223.005C256.46 223.005 256.46 223.005 256.56 223.005C278.36 223.005 293.96 210.305 310.36 196.805C328.16 182.305 346.56 167.205 373.66 167.205C399.16 167.205 422.96 176.405 440.66 193.205C458.36 210.005 468.06 232.505 468.06 256.505C468.06 280.505 458.36 302.905 440.66 319.705C422.96 336.405 399.16 345.605 373.66 345.605ZM256.36 274.905C283.56 274.905 301.96 289.905 319.76 304.505C336.26 318.005 351.76 330.705 373.66 330.705C418.26 330.705 453.16 298.105 453.16 256.505C453.16 214.905 418.26 182.305 373.66 182.305C351.86 182.305 336.26 195.005 319.86 208.505C302.06 223.005 283.76 238.005 256.56 238.005C256.56 238.005 256.56 238.005 256.46 238.005C229.26 238.005 210.86 223.005 193.16 208.405C176.66 194.905 161.16 182.205 139.26 182.205C94.6598 182.205 59.7598 214.805 59.7598 256.405C59.7598 298.005 94.6598 330.605 139.26 330.605C161.06 330.605 176.66 317.905 193.06 304.405C210.86 290.005 229.16 274.905 256.36 274.905Z" fill="#8AC054"/>
<path d="M139.26 182.505C145.36 182.505 151.26 183.505 157.06 185.505C158.86 189.305 162.56 191.905 167.06 191.905C173.16 191.905 178.06 187.005 178.06 180.905C178.06 174.805 173.16 169.905 167.06 169.905C165.66 169.905 164.36 170.205 163.06 170.705C155.26 167.905 147.36 166.505 139.26 166.505C113.56 166.505 89.6598 175.805 71.8598 192.605C54.0598 209.505 44.2598 232.005 44.2598 256.205C44.2598 280.405 54.0598 302.905 71.8598 319.805C89.6598 336.605 113.56 345.905 139.26 345.905C150.66 345.905 161.36 343.305 172.16 337.805L171.86 337.205C173.56 335.805 174.56 333.705 174.56 331.405C174.56 327.305 171.16 323.905 167.06 323.905C166.46 323.905 165.86 324.005 165.26 324.105L164.96 323.505C156.46 327.805 148.06 329.905 139.26 329.905C94.9598 329.905 60.2598 297.505 60.2598 256.205C60.2598 214.905 94.9598 182.505 139.26 182.505Z" fill="#FFC73F"/>
<path d="M159.56 241.405C150.66 241.405 147.06 251.405 138.36 251.705V220.305C138.36 220.105 138.56 204.905 147.46 196.905C152.06 192.805 158.46 191.205 166.96 192.005L169.16 170.105C154.26 168.605 141.86 172.205 132.56 180.705C116.66 195.105 116.26 217.805 116.36 220.305V251.705C107.56 251.405 104.06 241.405 95.1596 241.405C86.0596 241.405 79.0596 248.205 79.0596 256.505C79.0596 264.805 86.0596 271.605 95.1596 271.605C104.06 271.605 107.66 261.605 116.36 261.305V338.205H138.36V261.305C147.16 261.605 150.66 271.605 159.56 271.605C168.66 271.605 175.66 264.805 175.66 256.505C175.56 248.205 168.56 241.405 159.56 241.405Z" fill="#FFC73F"/>
<path d="M206.761 343.904C203.761 343.904 201.461 343.104 199.761 341.404C198.061 339.704 197.261 337.204 197.261 334.004V201.304C197.261 198.104 198.061 195.604 199.761 194.004C201.461 192.404 203.761 191.604 206.761 191.604C209.861 191.604 212.261 192.404 213.961 194.004C215.661 195.604 216.461 198.104 216.461 201.304V284.804H216.861L258.361 244.304C260.461 242.204 262.361 240.604 264.061 239.404C265.761 238.304 267.961 237.704 270.661 237.704C273.361 237.704 275.361 238.404 276.761 239.704C278.161 241.004 278.861 242.704 278.861 244.804C278.861 246.804 277.861 248.904 275.861 250.804L231.761 293.604V284.104L279.861 330.504C281.861 332.504 282.761 334.504 282.761 336.604C282.661 338.704 281.961 340.504 280.461 341.804C278.961 343.104 277.061 343.804 274.661 343.804C271.861 343.804 269.561 343.204 267.761 342.104C265.961 341.004 263.961 339.204 261.761 336.804L216.961 294.504H216.561V333.904C216.561 340.604 213.261 343.904 206.761 343.904Z" fill="white"/>
<path d="M274.761 344.105C271.861 344.105 269.561 343.505 267.761 342.405C265.961 341.305 263.961 339.505 261.661 337.105L216.861 294.805H216.761V334.005C216.761 340.805 213.361 344.205 206.761 344.205C203.761 344.205 201.361 343.305 199.661 341.605C197.961 339.905 197.061 337.305 197.061 334.005V201.305C197.061 198.005 197.961 195.505 199.661 193.805C201.361 192.105 203.761 191.305 206.761 191.305C209.861 191.305 212.361 192.105 214.161 193.805C215.861 195.505 216.761 198.005 216.761 201.305V284.605H216.861L258.361 244.205C260.461 242.105 262.361 240.405 264.161 239.305C265.861 238.205 268.161 237.605 270.861 237.605C273.561 237.605 275.661 238.305 277.161 239.705C278.661 241.105 279.361 242.805 279.361 244.905C279.361 247.005 278.361 249.105 276.361 251.105L237.361 289.005L280.361 330.505C282.361 332.505 283.361 334.605 283.261 336.805C283.161 339.005 282.361 340.805 280.861 342.105C279.261 343.405 277.261 344.105 274.761 344.105ZM216.261 294.305H216.961L217.061 294.405L261.961 336.805C264.161 339.205 266.261 341.005 267.961 342.105C269.661 343.205 271.961 343.805 274.761 343.805C277.061 343.805 278.961 343.105 280.461 341.805C281.861 340.505 282.661 338.805 282.761 336.805C282.861 334.805 281.861 332.705 279.961 330.805L236.961 289.305L231.861 294.305V283.705L236.961 288.705L275.961 250.805C277.861 248.905 278.861 246.905 278.861 244.905C278.861 242.905 278.161 241.305 276.761 240.005C275.361 238.705 273.361 238.005 270.761 238.005C268.161 238.005 265.961 238.605 264.361 239.705C262.661 240.805 260.761 242.505 258.661 244.505L217.061 285.005H216.261V201.305C216.261 198.105 215.461 195.705 213.761 194.105C212.161 192.505 209.761 191.705 206.661 191.705C203.761 191.705 201.461 192.505 199.861 194.105C198.261 195.705 197.361 198.105 197.361 201.305V333.905C197.361 337.105 198.161 339.505 199.861 341.205C201.461 342.805 203.761 343.705 206.661 343.705C213.061 343.705 216.161 340.505 216.161 334.005V294.305H216.261ZM232.261 284.705V293.205L236.661 288.905L232.261 284.705Z" fill="white"/>
<path d="M302.16 343.905C298.86 343.905 296.46 343.105 294.76 341.405C293.06 339.705 292.26 337.205 292.26 334.005V247.505C292.26 244.305 293.06 241.805 294.76 240.205C296.46 238.605 298.76 237.805 301.76 237.805C304.76 237.805 307.06 238.605 308.66 240.205C310.26 241.805 311.06 244.305 311.06 247.505V263.805H308.96C311.26 255.305 315.46 248.905 321.66 244.505C327.86 240.105 335.76 237.605 345.16 237.105C347.46 237.005 349.26 237.505 350.66 238.705C352.06 239.905 352.86 241.905 352.96 244.705C353.06 247.405 352.46 249.505 351.06 251.205C349.66 252.805 347.46 253.805 344.46 254.105L340.66 254.305C331.36 255.305 324.16 258.305 319.16 263.405C314.16 268.505 311.66 275.505 311.66 284.405V334.005C311.66 337.305 310.86 339.705 309.26 341.405C307.56 343.005 305.26 343.905 302.16 343.905Z" fill="white"/>
<path d="M302.16 344.105C298.86 344.105 296.36 343.205 294.56 341.505C292.86 339.805 291.96 337.205 291.96 333.905V247.505C291.96 244.205 292.86 241.705 294.56 240.005C296.26 238.305 298.66 237.505 301.66 237.505C304.66 237.505 307.06 238.305 308.66 240.005C310.36 241.705 311.16 244.205 311.16 247.505V256.705C313.56 251.605 317.06 247.405 321.36 244.305C327.56 239.905 335.56 237.405 344.96 236.805C347.26 236.705 349.16 237.205 350.66 238.405C352.16 239.605 352.96 241.705 353.06 244.605C353.16 247.305 352.56 249.605 351.06 251.205C349.66 252.905 347.36 253.805 344.36 254.105L340.56 254.305C331.36 255.305 324.16 258.305 319.16 263.305C314.26 268.305 311.66 275.305 311.66 284.105V333.705C311.66 337.005 310.86 339.505 309.16 341.305C307.76 343.205 305.26 344.105 302.16 344.105ZM301.66 238.005C298.76 238.005 296.46 238.805 294.86 240.405C293.26 242.005 292.36 244.405 292.36 247.505V334.005C292.36 337.205 293.16 339.605 294.86 341.305C296.46 342.905 298.96 343.805 302.16 343.805C305.16 343.805 307.56 343.005 309.06 341.305C310.66 339.705 311.46 337.205 311.46 334.005V284.405C311.46 275.505 314.06 268.405 319.06 263.305C324.06 258.205 331.36 255.105 340.66 254.105L344.46 253.905C347.36 253.605 349.46 252.705 350.86 251.105C352.26 249.505 352.86 247.405 352.76 244.805C352.66 242.105 351.86 240.105 350.46 238.905C349.06 237.705 347.26 237.205 345.06 237.405C335.66 238.005 327.76 240.405 321.66 244.805C317.06 248.005 313.56 252.405 311.16 257.905V264.205H308.56L308.66 263.905C309.26 261.705 309.96 259.705 310.76 257.805V247.505C310.76 244.305 309.96 241.905 308.36 240.305C306.86 238.805 304.56 238.005 301.66 238.005ZM309.16 263.605H310.76V258.805C310.16 260.305 309.66 261.905 309.16 263.605Z" fill="white"/>
<path d="M388.561 344.305C381.461 344.305 375.061 342.905 369.361 340.105C363.661 337.305 359.161 333.505 356.061 328.705C352.861 323.905 351.261 318.505 351.261 312.605C351.261 305.005 353.161 299.005 356.961 294.605C360.761 290.205 367.161 287.105 376.261 285.205C385.261 283.305 397.461 282.305 412.661 282.305H422.661V294.505H413.161C402.261 294.505 393.661 295.005 387.461 296.005C381.161 297.005 376.761 298.705 374.261 301.205C371.761 303.705 370.461 307.105 370.461 311.505C370.461 317.005 372.361 321.505 376.261 325.105C380.161 328.605 385.461 330.405 392.261 330.405C397.661 330.405 402.361 329.105 406.461 326.505C410.561 323.905 413.761 320.405 416.161 315.905C418.561 311.505 419.761 306.305 419.761 300.505V276.105C419.761 267.805 418.061 261.705 414.661 258.005C411.261 254.305 405.561 252.405 397.461 252.405C392.761 252.405 387.961 253.005 383.061 254.305C378.161 255.605 372.961 257.605 367.561 260.205C365.461 261.205 363.561 261.505 362.061 261.205C360.461 260.805 359.261 260.005 358.361 258.705C357.461 257.405 356.961 255.905 356.861 254.305C356.761 252.705 357.161 251.105 357.961 249.505C358.761 247.905 360.161 246.805 362.061 246.105C368.261 243.005 374.461 240.805 380.561 239.405C386.661 238.105 392.461 237.405 397.861 237.405C407.061 237.405 414.561 238.905 420.561 241.705C426.461 244.605 430.961 249.005 433.861 255.005C436.861 261.005 438.261 268.705 438.261 278.005V333.905C438.261 337.205 437.461 339.605 435.961 341.305C434.361 343.005 432.161 343.805 429.161 343.805C426.361 343.805 424.061 343.005 422.461 341.305C420.861 339.605 420.061 337.105 420.061 333.905V318.905H421.961C420.861 324.105 418.661 328.605 415.561 332.505C412.461 336.305 408.561 339.205 404.061 341.305C399.561 343.305 394.361 344.305 388.561 344.305Z" fill="white"/>
<path d="M388.561 344.505C381.461 344.505 375.061 343.105 369.261 340.205C363.561 337.405 359.061 333.505 355.861 328.705C352.661 323.905 351.061 318.405 351.061 312.505C351.061 304.905 352.961 298.705 356.861 294.305C360.661 289.905 367.261 286.705 376.261 284.805C385.261 282.905 397.561 281.905 412.761 281.905H419.561V276.005C419.561 267.805 417.861 261.705 414.561 258.005C411.261 254.305 405.461 252.505 397.561 252.505C392.961 252.505 388.061 253.105 383.161 254.405C378.261 255.705 373.061 257.605 367.761 260.305C365.561 261.305 363.661 261.605 362.061 261.305C360.461 260.905 359.161 260.105 358.261 258.705C357.361 257.305 356.761 255.805 356.761 254.105C356.661 252.405 357.061 250.805 357.861 249.205C358.661 247.605 360.061 246.405 362.161 245.705C368.361 242.605 374.561 240.405 380.761 239.005C386.861 237.705 392.761 237.005 398.061 237.005C407.261 237.005 414.861 238.505 420.861 241.405C426.861 244.305 431.361 248.805 434.361 254.805C437.361 260.805 438.861 268.605 438.861 277.905V333.805C438.861 337.105 438.061 339.605 436.461 341.405C434.861 343.105 432.561 344.005 429.561 344.005C426.661 344.005 424.361 343.105 422.761 341.405C421.061 339.705 420.261 337.105 420.261 333.805V325.905C419.161 328.305 417.861 330.505 416.161 332.405C413.061 336.205 409.161 339.205 404.561 341.305C399.661 343.505 394.361 344.505 388.561 344.505ZM412.761 282.505C397.561 282.505 385.361 283.505 376.361 285.405C367.461 287.305 360.961 290.405 357.161 294.805C353.361 299.105 351.461 305.105 351.461 312.705C351.461 318.605 353.061 323.905 356.161 328.705C359.261 333.405 363.761 337.305 369.461 340.105C375.161 342.905 381.561 344.305 388.561 344.305C394.261 344.305 399.461 343.305 404.061 341.205C408.561 339.205 412.461 336.205 415.561 332.505C417.361 330.305 418.861 327.805 419.961 325.105V318.805H422.361L422.261 319.105C421.761 321.205 421.161 323.305 420.361 325.205V334.105C420.361 337.305 421.161 339.705 422.761 341.405C424.361 343.005 426.561 343.905 429.261 343.905C432.161 343.905 434.361 343.105 435.861 341.405C437.361 339.805 438.161 337.305 438.161 334.105V278.205C438.161 269.005 436.661 261.305 433.761 255.305C430.861 249.405 426.361 244.905 420.561 242.105C414.661 239.205 407.061 237.805 397.961 237.805C392.661 237.805 386.861 238.505 380.761 239.805C374.661 241.105 368.461 243.405 362.261 246.505C360.361 247.205 358.961 248.305 358.261 249.805C357.461 251.305 357.161 252.905 357.261 254.505C357.361 256.105 357.861 257.505 358.661 258.805C359.561 260.105 360.761 260.905 362.261 261.305C363.761 261.605 365.561 261.305 367.661 260.405C373.061 257.705 378.261 255.705 383.161 254.505C388.061 253.205 392.961 252.605 397.661 252.605C405.761 252.605 411.561 254.505 414.961 258.305C418.361 262.105 420.061 268.205 420.061 276.605V282.505H423.061V295.205H420.061V300.905C420.061 306.705 418.861 311.905 416.461 316.405C414.061 320.905 410.761 324.505 406.661 327.105C402.561 329.705 397.761 331.105 392.361 331.105C385.561 331.105 380.161 329.305 376.261 325.705C372.361 322.105 370.361 317.505 370.361 312.005C370.361 307.605 371.661 304.105 374.261 301.605C376.861 299.105 381.361 297.305 387.661 296.305C393.961 295.305 402.661 294.805 413.461 294.805H419.761V282.505H412.761ZM413.161 294.705C402.361 294.705 393.661 295.205 387.461 296.205C381.261 297.205 376.861 298.905 374.361 301.305C371.861 303.705 370.661 307.105 370.661 311.405C370.661 316.805 372.561 321.305 376.461 324.805C380.261 328.305 385.661 330.005 392.261 330.005C397.561 330.005 402.261 328.705 406.361 326.105C410.361 323.505 413.661 320.005 416.061 315.605C418.461 311.205 419.661 306.105 419.661 300.305V294.605H413.161V294.705ZM420.361 319.105V323.805C420.961 322.305 421.361 320.705 421.761 319.105H420.361ZM419.961 294.305H422.461V282.505H419.961V294.305Z" fill="white"/>
<path d="M165.76 343.505C162.76 343.505 160.46 342.605 158.76 340.705C157.06 338.805 156.26 336.305 156.26 333.105V294.505C156.26 291.105 157.06 288.505 158.76 286.805C160.46 285.005 162.76 284.205 165.76 284.205C168.86 284.205 171.26 285.105 172.96 286.805C174.66 288.605 175.46 291.105 175.46 294.505V333.105C175.46 336.405 174.66 338.905 173.06 340.705C171.46 342.505 168.96 343.505 165.76 343.505Z" fill="white"/>
<path d="M165.76 343.705C162.76 343.705 160.36 342.705 158.56 340.905C156.86 339.005 155.96 336.405 155.96 333.105V294.505C155.96 291.105 156.86 288.405 158.56 286.605C160.26 284.805 162.66 283.905 165.76 283.905C168.96 283.905 171.36 284.805 173.16 286.605C174.86 288.405 175.76 291.105 175.76 294.505V333.105C175.76 336.405 174.96 339.005 173.26 340.905C171.56 342.705 169.06 343.705 165.76 343.705ZM165.76 284.305C162.86 284.305 160.56 285.205 158.96 286.905C157.36 288.605 156.46 291.205 156.46 294.505V333.105C156.46 336.305 157.26 338.805 158.96 340.605C160.56 342.405 162.86 343.305 165.76 343.305C168.96 343.305 171.36 342.405 172.86 340.605C174.46 338.805 175.26 336.305 175.26 333.105V294.505C175.26 291.205 174.46 288.605 172.76 286.905C171.16 285.205 168.76 284.305 165.76 284.305Z" fill="white"/>
<path d="M89.46 343.505C86.46 343.505 84.16 342.605 82.46 340.705C80.76 338.905 79.96 336.305 79.96 333.105V294.505C79.96 291.105 80.76 288.505 82.46 286.805C84.16 285.005 86.46 284.205 89.46 284.205C92.56 284.205 94.96 285.105 96.66 286.805C98.36 288.605 99.16 291.105 99.16 294.505V333.105C99.16 336.405 98.36 338.905 96.76 340.705C95.16 342.505 92.76 343.505 89.46 343.505Z" fill="white"/>
<path d="M89.4602 343.705C86.4602 343.705 84.0602 342.705 82.2602 340.905C80.5602 339.005 79.6602 336.405 79.6602 333.105V294.505C79.6602 291.105 80.5602 288.405 82.2602 286.605C83.9602 284.805 86.3602 283.905 89.4602 283.905C92.6602 283.905 95.0602 284.805 96.8602 286.605C98.5602 288.405 99.4602 291.105 99.4602 294.505V333.105C99.4602 336.405 98.6602 339.005 96.9602 340.905C95.3602 342.705 92.7602 343.705 89.4602 343.705ZM89.4602 284.305C86.5602 284.305 84.2602 285.205 82.6602 286.905C81.0602 288.605 80.1602 291.205 80.1602 294.505V333.105C80.1602 336.305 80.9602 338.805 82.6602 340.605C84.2602 342.405 86.5602 343.305 89.4602 343.305C92.6602 343.305 95.0602 342.405 96.5602 340.605C98.1602 338.805 98.9602 336.305 98.9602 333.105V294.505C98.9602 291.205 98.1602 288.605 96.4602 286.905C94.8602 285.205 92.5602 284.305 89.4602 284.305Z" fill="white"/>
<defs>
<linearGradient id="paint0_linear_2805_6572" x1="256" y1="512" x2="256" y2="0" gradientUnits="userSpaceOnUse">
<stop stop-color="#3B196D"/>
<stop offset="0.6" stop-color="#20124D"/>
<stop offset="1" stop-color="#0D0A2D"/>
</linearGradient>
</defs>
</svg>
