<svg width="424" height="196" viewBox="0 0 424 196" fill="none" xmlns="http://www.w3.org/2000/svg">
<path d="M329.4 187.1C302.2 187.1 283.8 172.1 266 157.6C249.5 144.2 234 131.5 212.1 131.4C212.1 131.4 212.1 131.4 212 131.4C190.2 131.4 174.6 144.1 158.2 157.6C140.4 172.1 122 187.2 94.9 187.2C69.4 187.2 45.6 178 27.9 161.2C10.2 144.4 0.5 122 0.5 98.0002C0.5 74.0002 10.2 51.6002 27.9 34.8002C45.6 18.1002 69.4 8.8002 94.9 8.8002C122.1 8.8002 140.5 23.8002 158.3 38.3002C174.8 51.7002 190.3 64.4002 212.2 64.5002C212.2 64.5002 212.2 64.5002 212.3 64.5002C234.1 64.5002 249.7 51.8002 266.1 38.3002C283.9 23.8002 302.3 8.7002 329.4 8.7002C354.9 8.7002 378.7 17.9002 396.4 34.7002C414.1 51.5002 423.8 74.0002 423.8 98.0002C423.8 122 414.1 144.4 396.4 161.2C378.7 177.9 354.9 187.1 329.4 187.1ZM212.1 116.4C239.3 116.4 257.7 131.4 275.5 146C292 159.5 307.5 172.2 329.4 172.2C374 172.2 408.9 139.6 408.9 98.0002C408.9 56.4002 374 23.8002 329.4 23.8002C307.6 23.8002 292 36.5002 275.6 50.0002C257.8 64.5002 239.5 79.5002 212.3 79.5002C212.3 79.5002 212.3 79.5002 212.2 79.5002C185 79.5002 166.6 64.5002 148.9 49.9002C132.4 36.4002 116.9 23.7002 95 23.7002C50.4 23.7002 15.5 56.3002 15.5 97.9002C15.5 139.5 50.4 172.1 95 172.1C116.8 172.1 132.4 159.4 148.8 145.9C166.6 131.5 184.9 116.4 212.1 116.4Z" fill="#8AC054"/>
<path d="M95 24C101.1 24 107 25 112.8 27C114.6 30.8 118.3 33.4 122.8 33.4C128.9 33.4 133.8 28.5 133.8 22.4C133.8 16.3 128.9 11.4 122.8 11.4C121.4 11.4 120.1 11.7 118.8 12.2C111 9.4 103.1 8 95 8C69.3 8 45.4 17.3 27.6 34.1C9.8 51 0 73.5 0 97.7C0 121.9 9.8 144.4 27.6 161.3C45.4 178.1 69.3 187.4 95 187.4C106.4 187.4 117.1 184.8 127.9 179.3L127.6 178.7C129.3 177.3 130.3 175.2 130.3 172.9C130.3 168.8 126.9 165.4 122.8 165.4C122.2 165.4 121.6 165.5 121 165.6L120.7 165C112.2 169.3 103.8 171.4 95 171.4C50.7 171.4 16 139 16 97.7C16 56.4 50.7 24 95 24Z" fill="#FFC73F"/>
<path d="M115.3 82.9001C106.4 82.9001 102.8 92.9001 94.0998 93.2001V61.8001C94.0998 61.6001 94.2998 46.4001 103.2 38.4001C107.8 34.3001 114.2 32.7001 122.7 33.5001L124.9 11.6001C110 10.1001 97.5998 13.7001 88.2998 22.2001C72.3998 36.6001 71.9998 59.3001 72.0998 61.8001V93.2001C63.2998 92.9001 59.7998 82.9001 50.8998 82.9001C41.7998 82.9001 34.7998 89.7001 34.7998 98.0001C34.7998 106.3 41.7998 113.1 50.8998 113.1C59.7998 113.1 63.3998 103.1 72.0998 102.8V179.7H94.0998V102.8C102.9 103.1 106.4 113.1 115.3 113.1C124.4 113.1 131.4 106.3 131.4 98.0001C131.3 89.7001 124.3 82.9001 115.3 82.9001Z" fill="#FFC73F"/>
<path d="M162.501 185.4C159.501 185.4 157.201 184.6 155.501 182.9C153.801 181.2 153.001 178.7 153.001 175.5V42.7996C153.001 39.5996 153.801 37.0996 155.501 35.4996C157.201 33.8996 159.501 33.0996 162.501 33.0996C165.601 33.0996 168.001 33.8996 169.701 35.4996C171.401 37.0996 172.201 39.5996 172.201 42.7996V126.3H172.601L214.101 85.7996C216.201 83.6996 218.101 82.0996 219.801 80.8996C221.501 79.7996 223.701 79.1996 226.401 79.1996C229.101 79.1996 231.101 79.8996 232.501 81.1996C233.901 82.4996 234.601 84.1996 234.601 86.2996C234.601 88.2996 233.601 90.3996 231.601 92.2996L187.501 135.1V125.6L235.601 172C237.601 174 238.501 176 238.501 178.1C238.401 180.2 237.701 182 236.201 183.3C234.701 184.6 232.801 185.3 230.401 185.3C227.601 185.3 225.301 184.7 223.501 183.6C221.701 182.5 219.701 180.7 217.501 178.3L172.701 136H172.301V175.4C172.301 182.1 169.001 185.4 162.501 185.4Z" fill="white"/>
<path d="M230.501 185.6C227.601 185.6 225.301 185 223.501 183.9C221.701 182.8 219.701 181 217.401 178.6L172.601 136.3H172.501V175.5C172.501 182.3 169.101 185.7 162.501 185.7C159.501 185.7 157.101 184.8 155.401 183.1C153.701 181.4 152.801 178.8 152.801 175.5V42.7998C152.801 39.4998 153.701 36.9998 155.401 35.2998C157.101 33.5998 159.501 32.7998 162.501 32.7998C165.601 32.7998 168.101 33.5998 169.901 35.2998C171.601 36.9998 172.501 39.4998 172.501 42.7998V126.1H172.601L214.101 85.6998C216.201 83.5998 218.101 81.8998 219.901 80.7998C221.601 79.6998 223.901 79.0998 226.601 79.0998C229.301 79.0998 231.401 79.7998 232.901 81.1998C234.401 82.5998 235.101 84.2998 235.101 86.3998C235.101 88.4998 234.101 90.5998 232.101 92.5998L193.101 130.5L236.101 172C238.101 174 239.101 176.1 239.001 178.3C238.901 180.5 238.101 182.3 236.601 183.6C235.001 184.9 233.001 185.6 230.501 185.6ZM172.001 135.8H172.701L172.801 135.9L217.701 178.3C219.901 180.7 222.001 182.5 223.701 183.6C225.401 184.7 227.701 185.3 230.501 185.3C232.801 185.3 234.701 184.6 236.201 183.3C237.601 182 238.401 180.3 238.501 178.3C238.601 176.3 237.601 174.2 235.701 172.3L192.701 130.8L187.601 135.8V125.2L192.701 130.2L231.701 92.2998C233.601 90.3998 234.601 88.3998 234.601 86.3998C234.601 84.3998 233.901 82.7998 232.501 81.4998C231.101 80.1998 229.101 79.4998 226.501 79.4998C223.901 79.4998 221.701 80.0998 220.101 81.1998C218.401 82.2998 216.501 83.9998 214.401 85.9998L172.801 126.5H172.001V42.7998C172.001 39.5998 171.201 37.1998 169.501 35.5998C167.901 33.9998 165.501 33.1998 162.401 33.1998C159.501 33.1998 157.201 33.9998 155.601 35.5998C154.001 37.1998 153.101 39.5998 153.101 42.7998V175.4C153.101 178.6 153.901 181 155.601 182.7C157.201 184.3 159.501 185.2 162.401 185.2C168.801 185.2 171.901 182 171.901 175.5V135.8H172.001ZM188.001 126.2V134.7L192.401 130.4L188.001 126.2Z" fill="white"/>
<path d="M257.9 185.4C254.6 185.4 252.2 184.6 250.5 182.9C248.8 181.2 248 178.7 248 175.5V88.9998C248 85.7998 248.8 83.2998 250.5 81.6998C252.2 80.0998 254.5 79.2998 257.5 79.2998C260.5 79.2998 262.8 80.0998 264.4 81.6998C266 83.2998 266.8 85.7998 266.8 88.9998V105.3H264.7C267 96.7999 271.2 90.3998 277.4 85.9998C283.6 81.5998 291.5 79.0998 300.9 78.5998C303.2 78.4998 305 78.9998 306.4 80.1998C307.8 81.3998 308.6 83.3998 308.7 86.1998C308.8 88.8998 308.2 90.9998 306.8 92.6998C305.4 94.2998 303.2 95.2998 300.2 95.5998L296.4 95.7999C287.1 96.7999 279.9 99.7998 274.9 104.9C269.9 110 267.4 117 267.4 125.9V175.5C267.4 178.8 266.6 181.2 265 182.9C263.3 184.5 261 185.4 257.9 185.4Z" fill="white"/>
<path d="M257.9 185.6C254.6 185.6 252.1 184.7 250.3 183C248.6 181.3 247.7 178.7 247.7 175.4V89C247.7 85.7 248.6 83.2 250.3 81.5C252 79.8 254.4 79 257.4 79C260.4 79 262.8 79.8 264.4 81.5C266.1 83.2 266.9 85.7 266.9 89V98.2C269.3 93.1 272.8 88.9 277.1 85.8C283.3 81.4 291.3 78.9 300.7 78.3C303 78.2 304.9 78.7 306.4 79.9C307.9 81.1 308.7 83.2 308.8 86.1C308.9 88.8 308.3 91.1 306.8 92.7C305.4 94.4 303.1 95.3 300.1 95.6L296.3 95.8C287.1 96.8 279.9 99.8 274.9 104.8C270 109.8 267.4 116.8 267.4 125.6V175.2C267.4 178.5 266.6 181 264.9 182.8C263.5 184.7 261 185.6 257.9 185.6ZM257.4 79.5C254.5 79.5 252.2 80.3 250.6 81.9C249 83.5 248.1 85.9 248.1 89V175.5C248.1 178.7 248.9 181.1 250.6 182.8C252.2 184.4 254.7 185.3 257.9 185.3C260.9 185.3 263.3 184.5 264.8 182.8C266.4 181.2 267.2 178.7 267.2 175.5V125.9C267.2 117 269.8 109.9 274.8 104.8C279.8 99.7 287.1 96.6 296.4 95.6L300.2 95.4C303.1 95.1 305.2 94.2 306.6 92.6C308 91 308.6 88.9 308.5 86.3C308.4 83.6 307.6 81.6 306.2 80.4C304.8 79.2 303 78.7 300.8 78.9C291.4 79.5 283.5 81.9 277.4 86.3C272.8 89.5 269.3 93.9 266.9 99.4V105.7H264.3L264.4 105.4C265 103.2 265.7 101.2 266.5 99.3V89C266.5 85.8 265.7 83.4 264.1 81.8C262.6 80.3 260.3 79.5 257.4 79.5ZM264.9 105.1H266.5V100.3C265.9 101.8 265.4 103.4 264.9 105.1Z" fill="white"/>
<path d="M344.301 185.8C337.201 185.8 330.801 184.4 325.101 181.6C319.401 178.8 314.901 175 311.801 170.2C308.601 165.4 307.001 160 307.001 154.1C307.001 146.5 308.901 140.5 312.701 136.1C316.501 131.7 322.901 128.6 332.001 126.7C341.001 124.8 353.201 123.8 368.401 123.8H378.401V136H368.901C358.001 136 349.401 136.5 343.201 137.5C336.901 138.5 332.501 140.2 330.001 142.7C327.501 145.2 326.201 148.6 326.201 153C326.201 158.5 328.101 163 332.001 166.6C335.901 170.1 341.201 171.9 348.001 171.9C353.401 171.9 358.101 170.6 362.201 168C366.301 165.4 369.501 161.9 371.901 157.4C374.301 153 375.501 147.8 375.501 142V117.6C375.501 109.3 373.801 103.2 370.401 99.4999C367.001 95.7999 361.301 93.8999 353.201 93.8999C348.501 93.8999 343.701 94.4999 338.801 95.7999C333.901 97.0999 328.701 99.0999 323.301 101.7C321.201 102.7 319.301 103 317.801 102.7C316.201 102.3 315.001 101.5 314.101 100.2C313.201 98.8999 312.701 97.3999 312.601 95.7999C312.501 94.1999 312.901 92.5999 313.701 90.9999C314.501 89.3999 315.901 88.2999 317.801 87.5999C324.001 84.4999 330.201 82.2999 336.301 80.8999C342.401 79.5999 348.201 78.8999 353.601 78.8999C362.801 78.8999 370.301 80.3999 376.301 83.1999C382.201 86.0999 386.701 90.4999 389.601 96.4999C392.601 102.5 394.001 110.2 394.001 119.5V175.4C394.001 178.7 393.201 181.1 391.701 182.8C390.101 184.5 387.901 185.3 384.901 185.3C382.101 185.3 379.801 184.5 378.201 182.8C376.601 181.1 375.801 178.6 375.801 175.4V160.4H377.701C376.601 165.6 374.401 170.1 371.301 174C368.201 177.8 364.301 180.7 359.801 182.8C355.301 184.8 350.101 185.8 344.301 185.8Z" fill="white"/>
<path d="M344.301 186C337.201 186 330.801 184.6 325.001 181.7C319.301 178.9 314.801 175 311.601 170.2C308.401 165.4 306.801 159.9 306.801 154C306.801 146.4 308.701 140.2 312.601 135.8C316.401 131.4 323.001 128.2 332.001 126.3C341.001 124.4 353.301 123.4 368.501 123.4H375.301V117.5C375.301 109.3 373.601 103.2 370.301 99.5C367.001 95.8 361.201 94 353.301 94C348.701 94 343.801 94.6 338.901 95.9C334.001 97.2 328.801 99.1 323.501 101.8C321.301 102.8 319.401 103.1 317.801 102.8C316.201 102.4 314.901 101.6 314.001 100.2C313.101 98.8 312.501 97.3 312.501 95.6C312.401 93.9 312.801 92.3 313.601 90.7C314.401 89.1 315.801 87.9 317.901 87.2C324.101 84.1 330.301 81.9 336.501 80.5C342.601 79.2 348.501 78.5 353.801 78.5C363.001 78.5 370.601 80 376.601 82.9C382.601 85.8 387.101 90.3 390.101 96.3C393.101 102.3 394.601 110.1 394.601 119.4V175.3C394.601 178.6 393.801 181.1 392.201 182.9C390.601 184.6 388.301 185.5 385.301 185.5C382.401 185.5 380.101 184.6 378.501 182.9C376.801 181.2 376.001 178.6 376.001 175.3V167.4C374.901 169.8 373.601 172 371.901 173.9C368.801 177.7 364.901 180.7 360.301 182.8C355.401 185 350.101 186 344.301 186ZM368.501 124C353.301 124 341.101 125 332.101 126.9C323.201 128.8 316.701 131.9 312.901 136.3C309.101 140.6 307.201 146.6 307.201 154.2C307.201 160.1 308.801 165.4 311.901 170.2C315.001 174.9 319.501 178.8 325.201 181.6C330.901 184.4 337.301 185.8 344.301 185.8C350.001 185.8 355.201 184.8 359.801 182.7C364.301 180.7 368.201 177.7 371.301 174C373.101 171.8 374.601 169.3 375.701 166.6V160.3H378.101L378.001 160.6C377.501 162.7 376.901 164.8 376.101 166.7V175.6C376.101 178.8 376.901 181.2 378.501 182.9C380.101 184.5 382.301 185.4 385.001 185.4C387.901 185.4 390.101 184.6 391.601 182.9C393.101 181.3 393.901 178.8 393.901 175.6V119.7C393.901 110.5 392.401 102.8 389.501 96.8C386.601 90.9 382.101 86.4 376.301 83.6C370.401 80.7 362.801 79.3 353.701 79.3C348.401 79.3 342.601 80 336.501 81.3C330.401 82.6 324.201 84.9 318.001 88C316.101 88.7 314.701 89.8 314.001 91.3C313.201 92.8 312.901 94.4 313.001 96C313.101 97.6 313.601 99 314.401 100.3C315.301 101.6 316.501 102.4 318.001 102.8C319.501 103.1 321.301 102.8 323.401 101.9C328.801 99.2 334.001 97.2 338.901 96C343.801 94.7 348.701 94.1 353.401 94.1C361.501 94.1 367.301 96 370.701 99.8C374.101 103.6 375.801 109.7 375.801 118.1V124H378.801V136.7H375.801V142.4C375.801 148.2 374.601 153.4 372.201 157.9C369.801 162.4 366.501 166 362.401 168.6C358.301 171.2 353.501 172.6 348.101 172.6C341.301 172.6 335.901 170.8 332.001 167.2C328.101 163.6 326.101 159 326.101 153.5C326.101 149.1 327.401 145.6 330.001 143.1C332.601 140.6 337.101 138.8 343.401 137.8C349.701 136.8 358.401 136.3 369.201 136.3H375.501V124H368.501ZM368.901 136.2C358.101 136.2 349.401 136.7 343.201 137.7C337.001 138.7 332.601 140.4 330.101 142.8C327.601 145.2 326.401 148.6 326.401 152.9C326.401 158.3 328.301 162.8 332.201 166.3C336.001 169.8 341.401 171.5 348.001 171.5C353.301 171.5 358.001 170.2 362.101 167.6C366.101 165 369.401 161.5 371.801 157.1C374.201 152.7 375.401 147.6 375.401 141.8V136.1H368.901V136.2ZM376.101 160.6V165.3C376.701 163.8 377.101 162.2 377.501 160.6H376.101ZM375.701 135.8H378.201V124H375.701V135.8Z" fill="white"/>
<path d="M121.5 185C118.5 185 116.2 184.1 114.5 182.2C112.8 180.3 112 177.8 112 174.6V136C112 132.6 112.8 130 114.5 128.3C116.2 126.5 118.5 125.7 121.5 125.7C124.6 125.7 127 126.6 128.7 128.3C130.4 130.1 131.2 132.6 131.2 136V174.6C131.2 177.9 130.4 180.4 128.8 182.2C127.2 184 124.7 185 121.5 185Z" fill="white"/>
<path d="M121.5 185.2C118.5 185.2 116.1 184.2 114.3 182.4C112.6 180.5 111.7 177.9 111.7 174.6V136C111.7 132.6 112.6 129.9 114.3 128.1C116 126.3 118.4 125.4 121.5 125.4C124.7 125.4 127.1 126.3 128.9 128.1C130.6 129.9 131.5 132.6 131.5 136V174.6C131.5 177.9 130.7 180.5 129 182.4C127.3 184.2 124.8 185.2 121.5 185.2ZM121.5 125.8C118.6 125.8 116.3 126.7 114.7 128.4C113.1 130.1 112.2 132.7 112.2 136V174.6C112.2 177.8 113 180.3 114.7 182.1C116.3 183.9 118.6 184.8 121.5 184.8C124.7 184.8 127.1 183.9 128.6 182.1C130.2 180.3 131 177.8 131 174.6V136C131 132.7 130.2 130.1 128.5 128.4C126.9 126.7 124.5 125.8 121.5 125.8Z" fill="white"/>
<path d="M45.2002 185C42.2002 185 39.9002 184.1 38.2002 182.2C36.5002 180.4 35.7002 177.8 35.7002 174.6V136C35.7002 132.6 36.5002 130 38.2002 128.3C39.9002 126.5 42.2002 125.7 45.2002 125.7C48.3002 125.7 50.7002 126.6 52.4002 128.3C54.1002 130.1 54.9002 132.6 54.9002 136V174.6C54.9002 177.9 54.1002 180.4 52.5002 182.2C50.9002 184 48.5002 185 45.2002 185Z" fill="white"/>
<path d="M45.2004 185.2C42.2004 185.2 39.8004 184.2 38.0004 182.4C36.3004 180.5 35.4004 177.9 35.4004 174.6V136C35.4004 132.6 36.3004 129.9 38.0004 128.1C39.7004 126.3 42.1004 125.4 45.2004 125.4C48.4004 125.4 50.8004 126.3 52.6004 128.1C54.3004 129.9 55.2004 132.6 55.2004 136V174.6C55.2004 177.9 54.4004 180.5 52.7004 182.4C51.1004 184.2 48.5004 185.2 45.2004 185.2ZM45.2004 125.8C42.3004 125.8 40.0004 126.7 38.4004 128.4C36.8004 130.1 35.9004 132.7 35.9004 136V174.6C35.9004 177.8 36.7004 180.3 38.4004 182.1C40.0004 183.9 42.3004 184.8 45.2004 184.8C48.4004 184.8 50.8004 183.9 52.3004 182.1C53.9004 180.3 54.7004 177.8 54.7004 174.6V136C54.7004 132.7 53.9004 130.1 52.2004 128.4C50.6004 126.7 48.3004 125.8 45.2004 125.8Z" fill="white"/>
</svg>
