<svg width="424" height="215" viewBox="0 0 424 215" fill="none" xmlns="http://www.w3.org/2000/svg">
<path d="M329.4 179.1C302.2 179.1 283.8 164.1 266 149.6C249.5 136.2 234 123.4 212.1 123.4C212.1 123.4 212.1 123.4 212 123.4C190.2 123.4 174.6 136.1 158.2 149.6C140.4 164.1 122 179.2 94.9 179.2C69.4 179.2 45.6 170 27.9 153.2C10.2 136.4 0.5 114 0.5 90.0002C0.5 66.0002 10.2 43.6002 27.9 26.8002C45.6 10.1002 69.4 0.800195 94.9 0.800195C122.1 0.800195 140.5 15.8002 158.3 30.3002C174.8 43.7002 190.3 56.4002 212.2 56.5002C212.2 56.5002 212.2 56.5002 212.3 56.5002C234.1 56.5002 249.7 43.8002 266.1 30.3002C283.9 15.8002 302.3 0.700195 329.4 0.700195C354.9 0.700195 378.7 9.9002 396.4 26.7002C414.1 43.5002 423.8 66.0002 423.8 90.0002C423.8 114 414.1 136.4 396.4 153.2C378.7 169.9 354.9 179.1 329.4 179.1ZM212.1 108.4C239.3 108.4 257.7 123.4 275.5 138C292 151.5 307.5 164.2 329.4 164.2C374 164.2 408.9 131.6 408.9 90.0002C408.9 48.4002 374 15.8002 329.4 15.8002C307.6 15.8002 292 28.5002 275.6 42.0002C257.8 56.5002 239.5 71.5002 212.3 71.5002C212.3 71.5002 212.3 71.5002 212.2 71.5002C185 71.5002 166.6 56.5002 148.9 41.9002C132.4 28.4002 116.9 15.7002 95 15.7002C50.4 15.7002 15.5 48.3002 15.5 89.9002C15.5 131.5 50.4 164.1 95 164.1C116.8 164.1 132.4 151.4 148.8 137.9C166.6 123.5 184.9 108.4 212.1 108.4Z" fill="#8AC054"/>
<path d="M95 16C101.1 16 107 17 112.8 19C114.6 22.8 118.3 25.4 122.8 25.4C128.9 25.4 133.8 20.5 133.8 14.4C133.8 8.3 128.9 3.4 122.8 3.4C121.4 3.4 120.1 3.7 118.8 4.2C111 1.4 103.1 0 95 0C69.3 0 45.4 9.3 27.6 26.1C9.8 43 0 65.5 0 89.7C0 113.9 9.8 136.4 27.6 153.3C45.4 170.1 69.3 179.4 95 179.4C106.4 179.4 117.1 176.8 127.9 171.3L127.6 170.7C129.3 169.3 130.3 167.2 130.3 164.9C130.3 160.8 126.9 157.4 122.8 157.4C122.2 157.4 121.6 157.5 121 157.6L120.7 157C112.2 161.3 103.8 163.4 95 163.4C50.7 163.4 16 131 16 89.7C16 48.4 50.7 16 95 16Z" fill="#FFC73F"/>
<path d="M115.3 74.9001C106.4 74.9001 102.8 84.9001 94.0998 85.2001V53.8001C94.0998 53.6001 94.2998 38.4001 103.2 30.4001C107.8 26.3001 114.2 24.6001 122.7 25.5001L124.9 3.60008C110 2.10008 97.5998 5.70008 88.2998 14.2001C72.3998 28.6001 71.9998 51.3001 72.0998 53.8001V85.2001C63.2998 84.9001 59.7998 74.9001 50.8998 74.9001C41.7998 74.9001 34.7998 81.7001 34.7998 90.0001C34.7998 98.3001 41.7998 105.1 50.8998 105.1C59.7998 105.1 63.3998 95.1001 72.0998 94.8001V171.7H94.0998V94.8001C102.9 95.1001 106.4 105.1 115.3 105.1C124.4 105.1 131.4 98.3001 131.4 90.0001C131.3 81.7001 124.3 74.9001 115.3 74.9001Z" fill="#FFC73F"/>
<path d="M162.501 177.4C159.501 177.4 157.201 176.6 155.501 174.9C153.801 173.2 153.001 170.7 153.001 167.5V34.7996C153.001 31.5996 153.801 29.0996 155.501 27.4996C157.201 25.8996 159.501 25.0996 162.501 25.0996C165.601 25.0996 168.001 25.8996 169.701 27.4996C171.401 29.0996 172.201 31.5996 172.201 34.7996V118.3H172.601L214.101 77.7996C216.201 75.6996 218.101 74.0996 219.801 72.8996C221.501 71.7996 223.701 71.1996 226.401 71.1996C229.101 71.1996 231.101 71.8996 232.501 73.1996C233.901 74.4996 234.601 76.1996 234.601 78.2996C234.601 80.2996 233.601 82.3996 231.601 84.2996L187.501 127.1V117.6L235.601 164C237.601 166 238.501 168 238.501 170.1C238.401 172.2 237.701 174 236.201 175.3C234.701 176.6 232.801 177.3 230.401 177.3C227.601 177.3 225.301 176.7 223.501 175.6C221.701 174.5 219.701 172.7 217.501 170.3L172.701 128H172.301V167.4C172.301 174.1 169.001 177.4 162.501 177.4Z" fill="#20124D"/>
<path d="M230.501 177.6C227.601 177.6 225.301 177 223.501 175.9C221.701 174.8 219.701 173 217.401 170.6L172.601 128.3H172.501V167.5C172.501 174.3 169.101 177.7 162.501 177.7C159.501 177.7 157.101 176.8 155.401 175.1C153.701 173.4 152.801 170.8 152.801 167.5V34.7998C152.801 31.4998 153.701 28.9998 155.401 27.2998C157.101 25.5998 159.501 24.7998 162.501 24.7998C165.701 24.7998 168.101 25.5998 169.901 27.2998C171.601 28.9998 172.501 31.4998 172.501 34.7998V118.1H172.601L214.101 77.6998C216.201 75.5998 218.101 73.8998 219.901 72.7998C221.601 71.6998 223.901 71.0998 226.601 71.0998C229.301 71.0998 231.401 71.7998 232.901 73.1998C234.401 74.5998 235.101 76.2998 235.101 78.3998C235.101 80.4998 234.101 82.5998 232.101 84.5998L193.101 122.5L236.101 164C238.101 166 239.101 168.1 239.001 170.3C238.901 172.5 238.101 174.3 236.601 175.6C235.001 176.9 233.001 177.6 230.501 177.6ZM172.001 127.8H172.701L172.801 127.9L217.701 170.3C219.901 172.7 222.001 174.5 223.701 175.6C225.401 176.7 227.701 177.3 230.501 177.3C232.801 177.3 234.701 176.6 236.201 175.3C237.601 174 238.401 172.3 238.501 170.3C238.601 168.3 237.601 166.2 235.701 164.3L192.701 122.8L187.601 127.8V117.2L192.701 122.2L231.701 84.2998C233.601 82.3998 234.601 80.3998 234.601 78.3998C234.601 76.3998 233.901 74.7998 232.501 73.4998C231.101 72.1998 229.101 71.4998 226.501 71.4998C223.901 71.4998 221.701 72.0998 220.101 73.1998C218.401 74.2998 216.501 75.9998 214.401 77.9998L172.801 118.5H172.001V34.7998C172.001 31.5998 171.201 29.1998 169.501 27.5998C167.901 25.9998 165.501 25.1998 162.401 25.1998C159.501 25.1998 157.201 25.9998 155.601 27.5998C154.001 29.1998 153.101 31.5998 153.101 34.7998V167.4C153.101 170.6 153.901 173 155.601 174.7C157.201 176.3 159.501 177.2 162.401 177.2C168.801 177.2 171.901 174 171.901 167.5V127.8H172.001ZM188.001 118.2V126.7L192.401 122.4L188.001 118.2Z" fill="#20124D"/>
<path d="M257.9 177.4C254.6 177.4 252.2 176.6 250.5 174.9C248.8 173.2 248 170.7 248 167.5V80.9998C248 77.7998 248.8 75.2998 250.5 73.6998C252.2 72.0998 254.5 71.2998 257.5 71.2998C260.5 71.2998 262.8 72.0998 264.4 73.6998C266 75.2998 266.8 77.7998 266.8 80.9998V97.2999H264.7C267 88.7999 271.2 82.3998 277.4 77.9998C283.6 73.5998 291.5 71.0998 300.9 70.5998C303.2 70.4998 305 70.9998 306.4 72.1998C307.8 73.3998 308.6 75.3998 308.7 78.1998C308.8 80.8998 308.2 82.9998 306.8 84.6998C305.4 86.2998 303.2 87.2998 300.2 87.5998L296.4 87.7999C287.1 88.7999 279.9 91.7998 274.9 96.8998C269.9 102 267.4 109 267.4 117.9V167.5C267.4 170.8 266.6 173.2 265 174.9C263.3 176.5 261 177.4 257.9 177.4Z" fill="#20124D"/>
<path d="M257.9 177.6C254.6 177.6 252.1 176.7 250.3 175C248.6 173.3 247.7 170.7 247.7 167.4V81C247.7 77.7 248.6 75.2 250.3 73.5C252 71.8 254.4 71 257.4 71C260.4 71 262.8 71.8 264.4 73.5C266.1 75.2 266.9 77.7 266.9 81V90.2C269.3 85.1 272.8 80.9 277.1 77.8C283.3 73.4 291.3 70.9 300.7 70.3C303 70.2 304.9 70.7 306.4 71.9C307.9 73.1 308.7 75.2 308.8 78.1C308.9 80.8 308.3 83.1 306.8 84.7C305.4 86.4 303.1 87.4 300.1 87.6L296.3 87.8C287.1 88.8 279.9 91.8 274.9 96.8C270 101.8 267.4 108.8 267.4 117.6V167.2C267.4 170.5 266.6 173 264.9 174.8C263.5 176.7 261 177.6 257.9 177.6ZM257.4 71.5C254.5 71.5 252.2 72.3 250.6 73.9C249 75.5 248.1 77.9 248.1 81.1V167.6C248.1 170.8 248.9 173.2 250.6 174.9C252.2 176.5 254.7 177.4 257.9 177.4C260.9 177.4 263.3 176.6 264.8 174.9C266.4 173.3 267.2 170.8 267.2 167.6V118C267.2 109.1 269.8 102 274.8 96.9C279.8 91.8 287.1 88.7 296.4 87.7L300.2 87.5C303.1 87.2 305.2 86.3 306.6 84.7C308 83.1 308.6 81 308.5 78.4C308.4 75.7 307.6 73.7 306.2 72.5C304.8 71.3 303 70.8 300.8 71C291.4 71.6 283.5 74 277.4 78.4C272.8 81.6 269.3 86 266.9 91.5V97.8H264.3L264.4 97.5C265 95.3 265.7 93.3 266.5 91.4V81C266.5 77.8 265.7 75.4 264.1 73.8C262.6 72.3 260.3 71.5 257.4 71.5ZM264.9 97.1H266.5V92.3C265.9 93.8 265.4 95.4 264.9 97.1Z" fill="#20124D"/>
<path d="M344.301 177.8C337.201 177.8 330.801 176.4 325.101 173.6C319.401 170.8 314.901 167 311.801 162.2C308.601 157.4 307.001 152 307.001 146.1C307.001 138.5 308.901 132.5 312.701 128.1C316.501 123.7 322.901 120.6 332.001 118.7C341.001 116.8 353.201 115.8 368.401 115.8H378.401V128H368.901C358.001 128 349.401 128.5 343.201 129.5C336.901 130.5 332.501 132.2 330.001 134.7C327.501 137.2 326.201 140.6 326.201 145C326.201 150.5 328.101 155 332.001 158.6C335.901 162.1 341.201 163.9 348.001 163.9C353.401 163.9 358.101 162.6 362.201 160C366.301 157.4 369.501 153.9 371.901 149.4C374.301 145 375.501 139.8 375.501 134V109.6C375.501 101.3 373.801 95.1999 370.401 91.4999C367.001 87.7999 361.301 85.8999 353.201 85.8999C348.501 85.8999 343.701 86.4999 338.801 87.7999C333.901 89.0999 328.701 91.0999 323.301 93.6999C321.201 94.6999 319.301 94.9999 317.801 94.6999C316.201 94.2999 315.001 93.4999 314.101 92.1999C313.201 90.8999 312.701 89.3999 312.601 87.7999C312.501 86.1999 312.901 84.5999 313.701 82.9999C314.501 81.3999 315.901 80.2999 317.801 79.5999C324.001 76.4999 330.201 74.2999 336.301 72.8999C342.401 71.5999 348.201 70.8999 353.601 70.8999C362.801 70.8999 370.301 72.3999 376.301 75.1999C382.201 78.0999 386.701 82.4999 389.601 88.4999C392.601 94.4999 394.001 102.2 394.001 111.5V167.4C394.001 170.7 393.201 173.1 391.701 174.8C390.101 176.5 387.901 177.3 384.901 177.3C382.101 177.3 379.801 176.5 378.201 174.8C376.601 173.1 375.801 170.6 375.801 167.4V152.4H377.701C376.601 157.6 374.401 162.1 371.301 166C368.201 169.8 364.301 172.7 359.801 174.8C355.301 176.8 350.101 177.8 344.301 177.8Z" fill="#20124D"/>
<path d="M344.301 178C337.201 178 330.801 176.6 325.001 173.7C319.301 170.9 314.801 167 311.601 162.2C308.401 157.4 306.801 151.9 306.801 146C306.801 138.4 308.701 132.2 312.601 127.8C316.401 123.4 323.001 120.2 332.001 118.3C341.001 116.4 353.301 115.4 368.501 115.4H375.301V109.5C375.301 101.3 373.601 95.2 370.301 91.5C367.001 87.8 361.201 86 353.301 86C348.701 86 343.801 86.6 338.901 87.9C334.001 89.2 328.801 91.1 323.501 93.8C321.301 94.8 319.401 95.1 317.801 94.8C316.201 94.4 314.901 93.6 314.001 92.2C313.101 90.8 312.501 89.3 312.501 87.6C312.401 85.9 312.801 84.3 313.601 82.7C314.401 81.1 315.801 79.9 317.901 79.2C324.101 76.1 330.301 73.9 336.501 72.5C342.601 71.2 348.501 70.5 353.801 70.5C363.001 70.5 370.601 72 376.601 74.9C382.501 77.8 387.101 82.3 390.101 88.3C393.101 94.3 394.601 102.1 394.601 111.4V167.3C394.601 170.6 393.801 173.1 392.201 174.9C390.601 176.6 388.301 177.5 385.301 177.5C382.401 177.5 380.101 176.6 378.501 174.9C376.801 173.2 376.001 170.6 376.001 167.3V159.4C374.901 161.8 373.601 164 371.901 165.9C368.801 169.7 364.901 172.7 360.301 174.8C355.401 177 350.101 178 344.301 178ZM368.501 116C353.301 116 341.101 117 332.101 118.9C323.201 120.8 316.701 123.9 312.901 128.3C309.101 132.6 307.201 138.6 307.201 146.2C307.201 152.1 308.801 157.4 311.901 162.2C315.001 166.9 319.501 170.8 325.201 173.6C330.901 176.4 337.301 177.8 344.301 177.8C350.001 177.8 355.201 176.8 359.801 174.7C364.301 172.7 368.201 169.7 371.301 166C373.101 163.8 374.601 161.3 375.701 158.6V152.3H378.101L378.001 152.6C377.501 154.7 376.901 156.8 376.101 158.7V167.6C376.101 170.8 376.901 173.2 378.501 174.9C380.101 176.5 382.301 177.4 385.001 177.4C387.901 177.4 390.101 176.6 391.601 174.9C393.101 173.3 393.901 170.8 393.901 167.6V111.7C393.901 102.5 392.401 94.8 389.501 88.8C386.601 82.9 382.101 78.4 376.301 75.6C370.401 72.7 362.801 71.3 353.701 71.3C348.401 71.3 342.601 72 336.501 73.3C330.401 74.6 324.201 76.9 318.001 80C316.101 80.7 314.701 81.8 314.001 83.3C313.201 84.8 312.901 86.4 313.001 88C313.101 89.6 313.601 91 314.401 92.3C315.301 93.6 316.501 94.4 318.001 94.8C319.501 95.1 321.301 94.8 323.401 93.9C328.801 91.2 334.001 89.2 338.901 88C343.801 86.7 348.701 86.1 353.401 86.1C361.501 86.1 367.301 88 370.701 91.8C374.101 95.6 375.801 101.7 375.801 110.1V116H378.801V128.7H375.801V134.4C375.801 140.2 374.601 145.4 372.201 149.9C369.801 154.4 366.501 158 362.401 160.6C358.301 163.2 353.501 164.6 348.101 164.6C341.301 164.6 335.901 162.8 332.001 159.2C328.101 155.6 326.101 151 326.101 145.5C326.101 141.1 327.401 137.6 330.001 135.1C332.601 132.6 337.101 130.8 343.401 129.8C349.701 128.8 358.401 128.3 369.201 128.3H375.501V116H368.501ZM368.901 128.2C358.101 128.2 349.401 128.7 343.201 129.7C337.001 130.7 332.601 132.4 330.101 134.8C327.601 137.2 326.401 140.6 326.401 144.9C326.401 150.3 328.301 154.8 332.201 158.3C336.001 161.8 341.401 163.5 348.001 163.5C353.301 163.5 358.001 162.2 362.101 159.6C366.101 157 369.401 153.5 371.801 149.1C374.201 144.7 375.401 139.6 375.401 133.8V128.1H368.901V128.2ZM376.101 152.6V157.3C376.701 155.8 377.101 154.2 377.501 152.6H376.101ZM375.701 127.8H378.201V116H375.701V127.8Z" fill="#20124D"/>
<path d="M121.5 177C118.5 177 116.2 176.1 114.5 174.2C112.8 172.3 112 169.8 112 166.6V128C112 124.6 112.8 122 114.5 120.3C116.2 118.5 118.5 117.7 121.5 117.7C124.6 117.7 127 118.6 128.7 120.3C130.4 122.1 131.2 124.6 131.2 128V166.6C131.2 169.9 130.4 172.4 128.8 174.2C127.2 176 124.7 177 121.5 177Z" fill="#20124D"/>
<path d="M121.5 177.2C118.5 177.2 116.1 176.2 114.3 174.4C112.6 172.5 111.7 169.9 111.7 166.6V128C111.7 124.6 112.6 121.9 114.3 120.1C116 118.3 118.4 117.4 121.5 117.4C124.7 117.4 127.1 118.3 128.9 120.1C130.6 121.9 131.5 124.6 131.5 128V166.6C131.5 169.9 130.7 172.5 129 174.4C127.3 176.2 124.8 177.2 121.5 177.2ZM121.5 117.8C118.6 117.8 116.3 118.7 114.7 120.4C113.1 122.1 112.2 124.7 112.2 128V166.6C112.2 169.8 113 172.3 114.7 174.1C116.3 175.9 118.6 176.8 121.5 176.8C124.7 176.8 127.1 175.9 128.6 174.1C130.2 172.3 131 169.8 131 166.6V128C131 124.7 130.2 122.1 128.5 120.4C126.9 118.7 124.5 117.8 121.5 117.8Z" fill="#20124D"/>
<path d="M45.2002 177C42.2002 177 39.9002 176.1 38.2002 174.2C36.5002 172.4 35.7002 169.8 35.7002 166.6V128C35.7002 124.6 36.5002 122 38.2002 120.3C39.9002 118.5 42.2002 117.7 45.2002 117.7C48.3002 117.7 50.7002 118.6 52.4002 120.3C54.1002 122.1 54.9002 124.6 54.9002 128V166.6C54.9002 169.9 54.1002 172.4 52.5002 174.2C50.9002 176 48.5002 177 45.2002 177Z" fill="#20124D"/>
<path d="M45.2004 177.2C42.2004 177.2 39.8004 176.2 38.0004 174.4C36.3004 172.5 35.4004 169.9 35.4004 166.6V128C35.4004 124.6 36.3004 121.9 38.0004 120.1C39.7004 118.3 42.1004 117.4 45.2004 117.4C48.4004 117.4 50.8004 118.3 52.6004 120.1C54.3004 121.9 55.2004 124.6 55.2004 128V166.6C55.2004 169.9 54.4004 172.5 52.7004 174.4C51.1004 176.2 48.5004 177.2 45.2004 177.2ZM45.2004 117.8C42.3004 117.8 40.0004 118.7 38.4004 120.4C36.8004 122.1 35.9004 124.7 35.9004 128V166.6C35.9004 169.8 36.7004 172.3 38.4004 174.1C40.0004 175.9 42.3004 176.8 45.2004 176.8C48.4004 176.8 50.8004 175.9 52.3004 174.1C53.9004 172.3 54.7004 169.8 54.7004 166.6V128C54.7004 124.7 53.9004 122.1 52.2004 120.4C50.6004 118.7 48.3004 117.8 45.2004 117.8Z" fill="#20124D"/>
<path d="M406.7 195C406.5 195 406.4 195 406.3 194.8C406.2 194.7 406.2 194.6 406.2 194.4V186C406.2 185.8 406.2 185.7 406.3 185.6C406.4 185.5 406.5 185.5 406.7 185.5H409.8C410.8 185.5 411.5 185.7 412 186.2C412.5 186.7 412.8 187.3 412.8 188.2C412.8 188.8 412.7 189.2 412.4 189.6C412.2 190 411.8 190.3 411.4 190.5C410.9 190.7 410.4 190.8 409.8 190.8L409.9 190.6H410.2C410.5 190.6 410.8 190.7 411.1 190.9C411.3 191.1 411.6 191.4 411.8 191.8L413 194.2C413.1 194.3 413.1 194.4 413.1 194.6C413.1 194.7 413.1 194.8 413 194.9C412.9 195 412.8 195 412.7 195C412.6 195 412.4 195 412.3 194.9C412.2 194.8 412.1 194.7 412.1 194.6L410.7 191.9C410.5 191.5 410.3 191.3 410 191.1C409.7 191 409.4 190.9 409 190.9H407.3V194.4C407.3 194.6 407.3 194.7 407.2 194.8C407 194.9 406.9 195 406.7 195ZM407.2 190H409.6C410.3 190 410.8 189.8 411.2 189.5C411.6 189.2 411.7 188.7 411.7 188.1C411.7 187.5 411.5 187 411.2 186.7C410.8 186.4 410.3 186.2 409.6 186.2H407.2V190Z" fill="#20124D"/>
<path d="M409.6 198.6C405 198.6 401.2 194.8 401.2 190.2C401.2 185.6 405 181.8 409.6 181.8C414.2 181.8 418 185.6 418 190.2C418 194.8 414.2 198.6 409.6 198.6ZM409.6 182.5C405.4 182.5 401.9 185.9 401.9 190.2C401.9 194.4 405.3 197.9 409.6 197.9C413.9 197.9 417.3 194.5 417.3 190.2C417.3 186 413.8 182.5 409.6 182.5Z" fill="#20124D"/>
<path d="M36.0002 196.2C35.5002 196.2 35.0002 196.1 34.7002 195.8C34.4002 195.5 34.2002 195.1 34.2002 194.6C34.2002 194.1 34.4002 193.7 34.7002 193.4C35.0002 193.1 35.4002 193 36.0002 193C36.6002 193 37.0002 193.1 37.3002 193.4C37.6002 193.7 37.7002 194.1 37.7002 194.6C37.7002 195.1 37.6002 195.5 37.3002 195.8C37.0002 196.1 36.6002 196.2 36.0002 196.2ZM36.0002 210.4C35.5002 210.4 35.2002 210.3 34.9002 210C34.7002 209.7 34.5002 209.3 34.5002 208.8V200.1C34.5002 199.6 34.6002 199.2 34.9002 198.9C35.1002 198.6 35.5002 198.5 36.0002 198.5C36.5002 198.5 36.8002 198.6 37.1002 198.9C37.4002 199.2 37.5002 199.6 37.5002 200.1V208.8C37.5002 209.3 37.4002 209.7 37.1002 210C36.8002 210.3 36.5002 210.4 36.0002 210.4Z" fill="#8AC054"/>
<path d="M49.1006 210.4C48.6006 210.4 48.3006 210.3 48.0006 210C47.8006 209.7 47.6006 209.4 47.6006 208.9V199.9C47.6006 199.4 47.7006 199 48.0006 198.8C48.2006 198.5 48.6006 198.4 49.0006 198.4C49.4006 198.4 49.8006 198.5 50.0006 198.8C50.2006 199.1 50.4006 199.4 50.4006 199.9V201.5L50.1006 200.9C50.4006 200.1 51.0006 199.4 51.7006 199C52.4006 198.6 53.2006 198.3 54.2006 198.3C55.1006 198.3 55.9006 198.5 56.5006 198.8C57.1006 199.1 57.5006 199.7 57.8006 200.4C58.1006 201.1 58.2006 202 58.2006 203.1V208.9C58.2006 209.4 58.1006 209.8 57.8006 210C57.6006 210.3 57.2006 210.4 56.7006 210.4C56.2006 210.4 55.9006 210.3 55.6006 210C55.3006 209.7 55.2006 209.4 55.2006 208.9V203.3C55.2006 202.4 55.0006 201.7 54.7006 201.3C54.4006 200.9 53.9006 200.7 53.2006 200.7C52.3006 200.7 51.7006 201 51.2006 201.5C50.7006 202 50.4006 202.8 50.4006 203.7V208.9C50.6006 209.9 50.1006 210.4 49.1006 210.4Z" fill="#8AC054"/>
<path d="M70.7004 210.4C70.2004 210.4 69.9004 210.3 69.6004 210C69.3004 209.7 69.2004 209.4 69.2004 208.9V200.8H68.1004C67.7004 200.8 67.4004 200.7 67.2004 200.5C67.0004 200.3 66.9004 200 66.9004 199.7C66.9004 199.3 67.0004 199.1 67.2004 198.9C67.4004 198.7 67.7004 198.6 68.1004 198.6H70.0004L69.2004 199.4V198.6C69.2004 197 69.6004 195.7 70.4004 194.9C71.2004 194.1 72.4004 193.6 73.9004 193.5L74.7004 193.4C75.0004 193.4 75.3004 193.4 75.4004 193.6C75.6004 193.7 75.7004 193.9 75.8004 194.1C75.9004 194.3 75.9004 194.5 75.8004 194.8C75.8004 195 75.7004 195.2 75.5004 195.4C75.4004 195.6 75.2004 195.7 74.9004 195.7H74.6004C73.7004 195.8 73.1004 196 72.7004 196.4C72.3004 196.8 72.1004 197.4 72.1004 198.2V199.1L71.7004 198.7H74.0004C74.4004 198.7 74.7004 198.8 74.9004 199C75.1004 199.2 75.2004 199.5 75.2004 199.8C75.2004 200.1 75.1004 200.4 74.9004 200.6C74.7004 200.8 74.4004 200.9 74.0004 200.9H72.0004V209C72.2004 209.9 71.7004 210.4 70.7004 210.4Z" fill="#8AC054"/>
<path d="M84.5002 196.2C84.0002 196.2 83.5002 196.1 83.2002 195.8C82.9002 195.5 82.7002 195.1 82.7002 194.6C82.7002 194.1 82.9002 193.7 83.2002 193.4C83.5002 193.1 83.9002 193 84.5002 193C85.1002 193 85.5002 193.1 85.8002 193.4C86.1002 193.7 86.2002 194.1 86.2002 194.6C86.2002 195.1 86.1002 195.5 85.8002 195.8C85.5002 196.1 85.1002 196.2 84.5002 196.2ZM84.5002 210.4C84.0002 210.4 83.7002 210.3 83.4002 210C83.2002 209.7 83.0002 209.3 83.0002 208.8V200.1C83.0002 199.6 83.1002 199.2 83.4002 198.9C83.6002 198.6 84.0002 198.5 84.5002 198.5C85.0002 198.5 85.3002 198.6 85.6002 198.9C85.9002 199.2 86.0002 199.6 86.0002 200.1V208.8C86.0002 209.3 85.9002 209.7 85.6002 210C85.3002 210.3 85.0002 210.4 84.5002 210.4Z" fill="#8AC054"/>
<path d="M97.6006 210.4C97.1006 210.4 96.8006 210.3 96.5006 210C96.3006 209.7 96.1006 209.4 96.1006 208.9V199.9C96.1006 199.4 96.2006 199 96.5006 198.8C96.7006 198.5 97.1006 198.4 97.5006 198.4C97.9006 198.4 98.3006 198.5 98.5006 198.8C98.7006 199.1 98.9006 199.4 98.9006 199.9V201.5L98.6006 200.9C98.9006 200.1 99.5006 199.4 100.201 199C100.901 198.6 101.701 198.3 102.701 198.3C103.601 198.3 104.401 198.5 105.001 198.8C105.601 199.1 106.001 199.7 106.301 200.4C106.601 201.1 106.701 202 106.701 203.1V208.9C106.701 209.4 106.601 209.8 106.301 210C106.101 210.3 105.701 210.4 105.201 210.4C104.701 210.4 104.401 210.3 104.101 210C103.801 209.7 103.701 209.4 103.701 208.9V203.3C103.701 202.4 103.501 201.7 103.201 201.3C102.901 200.9 102.401 200.7 101.701 200.7C100.801 200.7 100.201 201 99.7006 201.5C99.2006 202 98.9006 202.8 98.9006 203.7V208.9C99.1006 209.9 98.6006 210.4 97.6006 210.4Z" fill="#8AC054"/>
<path d="M118.5 196.2C118 196.2 117.5 196.1 117.2 195.8C116.9 195.5 116.7 195.1 116.7 194.6C116.7 194.1 116.9 193.7 117.2 193.4C117.5 193.1 117.9 193 118.5 193C119.1 193 119.5 193.1 119.8 193.4C120.1 193.7 120.2 194.1 120.2 194.6C120.2 195.1 120.1 195.5 119.8 195.8C119.4 196.1 119 196.2 118.5 196.2ZM118.5 210.4C118 210.4 117.7 210.3 117.4 210C117.2 209.7 117 209.3 117 208.8V200.1C117 199.6 117.1 199.2 117.4 198.9C117.6 198.6 118 198.5 118.5 198.5C119 198.5 119.3 198.6 119.6 198.9C119.9 199.2 120 199.6 120 200.1V208.8C120 209.3 119.9 209.7 119.6 210C119.3 210.3 118.9 210.4 118.5 210.4Z" fill="#8AC054"/>
<path d="M135.4 210.5C134.4 210.5 133.6 210.3 132.9 210C132.2 209.7 131.7 209.1 131.4 208.5C131.1 207.8 130.9 207 130.9 206V200.9H129.7C129.3 200.9 129 200.8 128.8 200.6C128.6 200.4 128.5 200.1 128.5 199.8C128.5 199.4 128.6 199.2 128.8 199C129 198.8 129.3 198.7 129.7 198.7H130.9V196.5C130.9 196 131 195.6 131.3 195.4C131.6 195.1 131.9 195 132.4 195C132.9 195 133.2 195.1 133.5 195.4C133.7 195.7 133.9 196 133.9 196.5V198.7H136.4C136.8 198.7 137.1 198.8 137.3 199C137.5 199.2 137.6 199.5 137.6 199.8C137.6 200.1 137.5 200.4 137.3 200.6C137.1 200.8 136.8 200.9 136.4 200.9H133.9V205.8C133.9 206.6 134.1 207.1 134.4 207.5C134.7 207.9 135.3 208.1 136 208.1C136.3 208.1 136.5 208.1 136.7 208C136.9 208 137.1 207.9 137.2 207.9C137.4 207.9 137.5 207.9 137.7 208.1C137.8 208.2 137.9 208.5 137.9 208.9C137.9 209.2 137.8 209.5 137.7 209.7C137.6 209.9 137.4 210.1 137.2 210.2C137 210.3 136.7 210.3 136.4 210.4C135.9 210.5 135.6 210.5 135.4 210.5Z" fill="#8AC054"/>
<path d="M151.801 210.5C150.501 210.5 149.401 210.3 148.501 209.8C147.601 209.3 146.901 208.6 146.401 207.7C145.901 206.8 145.601 205.7 145.601 204.5C145.601 203.3 145.801 202.2 146.301 201.3C146.801 200.4 147.501 199.7 148.301 199.2C149.201 198.7 150.101 198.4 151.201 198.4C152.001 198.4 152.701 198.5 153.401 198.8C154.001 199.1 154.601 199.5 155.001 200C155.501 200.5 155.801 201.1 156.001 201.8C156.201 202.5 156.401 203.3 156.401 204.2C156.401 204.5 156.301 204.7 156.101 204.9C155.901 205.1 155.601 205.1 155.301 205.1H147.801V203.4H154.301L153.901 203.8C153.901 203.1 153.801 202.5 153.601 202C153.401 201.5 153.101 201.1 152.701 200.9C152.301 200.6 151.801 200.5 151.201 200.5C150.501 200.5 150.001 200.7 149.501 201C149.001 201.3 148.701 201.7 148.501 202.3C148.301 202.9 148.101 203.5 148.101 204.3V204.5C148.101 205.8 148.401 206.8 149.001 207.4C149.601 208 150.501 208.4 151.601 208.4C152.001 208.4 152.501 208.3 153.001 208.2C153.501 208.1 154.001 207.9 154.401 207.7C154.701 207.5 155.001 207.4 155.301 207.4C155.501 207.4 155.701 207.5 155.901 207.7C156.001 207.9 156.101 208.1 156.201 208.3C156.201 208.5 156.201 208.8 156.101 209C156.001 209.2 155.801 209.4 155.501 209.6C155.001 209.9 154.301 210.2 153.601 210.4C153.001 210.4 152.401 210.5 151.801 210.5Z" fill="#8AC054"/>
<path d="M180.9 214.7C180.4 214.7 180.1 214.6 179.8 214.3C179.6 214 179.4 213.7 179.4 213.2V199.9C179.4 199.4 179.5 199 179.8 198.8C180 198.5 180.4 198.4 180.8 198.4C181.3 198.4 181.6 198.5 181.9 198.8C182.1 199.1 182.3 199.4 182.3 199.9V201.8L182 201.1C182.2 200.3 182.7 199.6 183.4 199.1C184.1 198.6 185 198.4 185.9 198.4C186.9 198.4 187.8 198.6 188.5 199.1C189.3 199.6 189.8 200.3 190.3 201.2C190.7 202.1 190.9 203.2 190.9 204.4C190.9 205.6 190.7 206.7 190.3 207.6C189.9 208.5 189.3 209.2 188.6 209.7C187.9 210.2 187 210.4 186 210.4C185.1 210.4 184.2 210.2 183.5 209.7C182.8 209.2 182.3 208.6 182.1 207.8H182.4V213.2C182.4 213.7 182.3 214.1 182 214.3C181.8 214.6 181.4 214.7 180.9 214.7ZM185.2 208.2C185.8 208.2 186.3 208.1 186.7 207.8C187.1 207.5 187.5 207.1 187.7 206.5C187.9 205.9 188.1 205.2 188.1 204.4C188.1 203.1 187.8 202.2 187.3 201.6C186.8 201 186.1 200.7 185.2 200.7C184.6 200.7 184.1 200.8 183.7 201.1C183.3 201.4 182.9 201.8 182.7 202.4C182.5 203 182.3 203.7 182.3 204.5C182.3 205.8 182.6 206.7 183.1 207.3C183.7 207.9 184.4 208.2 185.2 208.2Z" fill="#8AC054"/>
<path d="M205.8 210.5C204.6 210.5 203.6 210.3 202.7 209.8C201.8 209.3 201.2 208.6 200.7 207.7C200.2 206.8 200 205.7 200 204.5C200 203.6 200.1 202.7 200.4 202C200.7 201.3 201.1 200.6 201.6 200.1C202.1 199.6 202.7 199.2 203.4 198.9C204.1 198.6 204.9 198.5 205.8 198.5C207 198.5 208 198.7 208.9 199.2C209.8 199.7 210.4 200.4 210.9 201.3C211.4 202.2 211.6 203.3 211.6 204.5C211.6 205.4 211.5 206.3 211.2 207C210.9 207.7 210.5 208.4 210 208.9C209.5 209.4 208.9 209.8 208.2 210.1C207.5 210.3 206.7 210.5 205.8 210.5ZM205.8 208.2C206.4 208.2 206.9 208.1 207.3 207.8C207.7 207.5 208.1 207.1 208.3 206.5C208.5 205.9 208.7 205.2 208.7 204.4C208.7 203.1 208.4 202.2 207.9 201.6C207.4 201 206.7 200.7 205.8 200.7C205.2 200.7 204.7 200.8 204.3 201.1C203.9 201.4 203.5 201.8 203.3 202.4C203.1 203 202.9 203.7 202.9 204.5C202.9 205.8 203.2 206.7 203.7 207.3C204.3 207.9 205 208.2 205.8 208.2Z" fill="#8AC054"/>
<path d="M225.4 210.5C224.7 210.5 224 210.4 223.3 210.3C222.6 210.2 221.9 209.9 221.3 209.6C221.1 209.4 220.9 209.3 220.8 209C220.7 208.8 220.7 208.6 220.7 208.4C220.7 208.2 220.8 208 220.9 207.8C221 207.6 221.2 207.5 221.4 207.5C221.6 207.5 221.8 207.5 222.1 207.6C222.7 207.9 223.3 208.1 223.8 208.2C224.3 208.3 224.9 208.4 225.4 208.4C226.1 208.4 226.7 208.3 227.1 208C227.5 207.7 227.6 207.4 227.6 207C227.6 206.6 227.5 206.4 227.2 206.2C227 206 226.6 205.9 226.1 205.8L223.8 205.3C222.8 205.1 222.1 204.7 221.6 204.2C221.1 203.7 220.8 203 220.8 202.1C220.8 201.3 221 200.7 221.4 200.1C221.8 199.5 222.4 199.1 223.1 198.8C223.8 198.5 224.7 198.3 225.6 198.3C226.3 198.3 226.9 198.4 227.5 198.5C228.1 198.7 228.7 198.9 229.2 199.2C229.4 199.3 229.6 199.5 229.7 199.7C229.8 199.9 229.8 200.1 229.8 200.3C229.8 200.5 229.7 200.7 229.5 200.9C229.4 201.1 229.2 201.2 229 201.2C228.8 201.2 228.6 201.2 228.3 201.1C227.8 200.8 227.4 200.7 226.9 200.6C226.5 200.5 226 200.4 225.6 200.4C224.8 200.4 224.3 200.5 223.9 200.8C223.5 201.1 223.4 201.4 223.4 201.9C223.4 202.2 223.5 202.5 223.7 202.7C223.9 202.9 224.2 203.1 224.7 203.2L227 203.7C228 203.9 228.8 204.2 229.3 204.7C229.8 205.2 230.1 205.9 230.1 206.7C230.1 207.9 229.7 208.8 228.8 209.4C228.1 210.2 226.9 210.5 225.4 210.5Z" fill="#8AC054"/>
<path d="M244 210.5C243.3 210.5 242.6 210.4 241.9 210.3C241.2 210.2 240.5 209.9 239.9 209.6C239.7 209.4 239.5 209.3 239.4 209C239.3 208.8 239.3 208.6 239.3 208.4C239.3 208.2 239.4 208 239.5 207.8C239.6 207.6 239.8 207.5 240 207.5C240.2 207.5 240.4 207.5 240.7 207.6C241.3 207.9 241.9 208.1 242.4 208.2C242.9 208.3 243.5 208.4 244 208.4C244.7 208.4 245.3 208.3 245.7 208C246.1 207.7 246.2 207.4 246.2 207C246.2 206.6 246.1 206.4 245.8 206.2C245.6 206 245.2 205.9 244.7 205.8L242.4 205.3C241.4 205.1 240.7 204.7 240.2 204.2C239.7 203.7 239.4 203 239.4 202.1C239.4 201.3 239.6 200.7 240 200.1C240.4 199.5 241 199.1 241.7 198.8C242.4 198.5 243.3 198.3 244.2 198.3C244.9 198.3 245.5 198.4 246.1 198.5C246.7 198.7 247.3 198.9 247.8 199.2C248 199.3 248.2 199.5 248.3 199.7C248.4 199.9 248.4 200.1 248.4 200.3C248.4 200.5 248.3 200.7 248.1 200.9C247.9 201.1 247.8 201.2 247.6 201.2C247.4 201.2 247.2 201.2 246.9 201.1C246.4 200.8 246 200.7 245.5 200.6C245.1 200.5 244.6 200.4 244.2 200.4C243.4 200.4 242.9 200.5 242.5 200.8C242.1 201.1 242 201.4 242 201.9C242 202.2 242.1 202.5 242.3 202.7C242.5 202.9 242.8 203.1 243.3 203.2L245.6 203.7C246.6 203.9 247.4 204.2 247.9 204.7C248.4 205.2 248.7 205.9 248.7 206.7C248.7 207.9 248.3 208.8 247.4 209.4C246.6 210.2 245.5 210.5 244 210.5Z" fill="#8AC054"/>
<path d="M259.8 196.2C259.3 196.2 258.8 196.1 258.5 195.8C258.2 195.5 258 195.1 258 194.6C258 194.1 258.2 193.7 258.5 193.4C258.8 193.1 259.2 193 259.8 193C260.4 193 260.8 193.1 261.1 193.4C261.4 193.7 261.5 194.1 261.5 194.6C261.5 195.1 261.4 195.5 261.1 195.8C260.8 196.1 260.4 196.2 259.8 196.2ZM259.8 210.4C259.3 210.4 259 210.3 258.7 210C258.5 209.7 258.3 209.3 258.3 208.8V200.1C258.3 199.6 258.4 199.2 258.7 198.9C258.9 198.6 259.3 198.5 259.8 198.5C260.3 198.5 260.6 198.6 260.9 198.9C261.2 199.2 261.3 199.6 261.3 200.1V208.8C261.3 209.3 261.2 209.7 260.9 210C260.7 210.3 260.3 210.4 259.8 210.4Z" fill="#8AC054"/>
<path d="M278.101 210.5C277.101 210.5 276.301 210.3 275.601 209.8C274.901 209.3 274.401 208.6 274.201 207.8L274.501 207.2V208.9C274.501 209.4 274.401 209.8 274.101 210C273.901 210.3 273.501 210.4 273.101 210.4C272.601 210.4 272.301 210.3 272.001 210C271.801 209.7 271.601 209.4 271.601 208.9V194.8C271.601 194.3 271.701 193.9 272.001 193.7C272.201 193.4 272.601 193.3 273.101 193.3C273.601 193.3 273.901 193.4 274.201 193.7C274.501 194 274.601 194.3 274.601 194.8V201H274.301C274.501 200.2 275.001 199.6 275.701 199.1C276.401 198.6 277.201 198.4 278.201 198.4C279.201 198.4 280.101 198.6 280.801 199.1C281.501 199.6 282.101 200.3 282.501 201.2C282.901 202.1 283.101 203.2 283.101 204.4C283.101 205.6 282.901 206.7 282.501 207.6C282.101 208.5 281.501 209.2 280.701 209.7C279.901 210.2 279.101 210.5 278.101 210.5ZM277.301 208.2C277.901 208.2 278.401 208.1 278.801 207.8C279.201 207.5 279.601 207.1 279.801 206.5C280.001 205.9 280.201 205.2 280.201 204.4C280.201 203.1 279.901 202.2 279.401 201.6C278.901 201 278.201 200.7 277.301 200.7C276.701 200.7 276.201 200.8 275.801 201.1C275.401 201.4 275.001 201.8 274.801 202.4C274.601 203 274.401 203.7 274.401 204.5C274.401 205.8 274.701 206.7 275.201 207.3C275.701 207.9 276.401 208.2 277.301 208.2Z" fill="#8AC054"/>
<path d="M294.1 196.2C293.6 196.2 293.1 196.1 292.8 195.8C292.5 195.5 292.3 195.1 292.3 194.6C292.3 194.1 292.5 193.7 292.8 193.4C293.1 193.1 293.5 193 294.1 193C294.7 193 295.1 193.1 295.4 193.4C295.7 193.7 295.8 194.1 295.8 194.6C295.8 195.1 295.7 195.5 295.4 195.8C295.1 196.1 294.7 196.2 294.1 196.2ZM294.1 210.4C293.6 210.4 293.3 210.3 293 210C292.8 209.7 292.6 209.3 292.6 208.8V200.1C292.6 199.6 292.7 199.2 293 198.9C293.2 198.6 293.6 198.5 294.1 198.5C294.6 198.5 294.9 198.6 295.2 198.9C295.5 199.2 295.6 199.6 295.6 200.1V208.8C295.6 209.3 295.5 209.7 295.2 210C295 210.3 294.6 210.4 294.1 210.4Z" fill="#8AC054"/>
<path d="M309.7 210.5C308.4 210.5 307.4 210.1 306.8 209.4C306.1 208.6 305.8 207.5 305.8 206.1V194.8C305.8 194.3 305.9 193.9 306.2 193.7C306.4 193.4 306.8 193.3 307.3 193.3C307.8 193.3 308.1 193.4 308.4 193.7C308.7 194 308.8 194.3 308.8 194.8V205.9C308.8 206.6 309 207.2 309.3 207.5C309.6 207.8 310 208 310.6 208C310.7 208 310.8 208 310.9 208C311 208 311.1 208 311.2 208C311.4 208 311.6 208 311.6 208.2C311.7 208.4 311.7 208.7 311.7 209.1C311.7 209.5 311.6 209.8 311.5 210C311.3 210.2 311.1 210.4 310.7 210.4C310.5 210.4 310.4 210.4 310.2 210.4C310.1 210.5 309.9 210.5 309.7 210.5Z" fill="#8AC054"/>
<path d="M321.901 196.2C321.401 196.2 320.901 196.1 320.601 195.8C320.301 195.5 320.101 195.1 320.101 194.6C320.101 194.1 320.301 193.7 320.601 193.4C320.901 193.1 321.301 193 321.901 193C322.501 193 322.901 193.1 323.201 193.4C323.501 193.7 323.601 194.1 323.601 194.6C323.601 195.1 323.501 195.5 323.201 195.8C322.901 196.1 322.501 196.2 321.901 196.2ZM321.901 210.4C321.401 210.4 321.101 210.3 320.801 210C320.601 209.7 320.401 209.3 320.401 208.8V200.1C320.401 199.6 320.501 199.2 320.801 198.9C321.001 198.6 321.401 198.5 321.901 198.5C322.401 198.5 322.701 198.6 323.001 198.9C323.301 199.2 323.401 199.6 323.401 200.1V208.8C323.401 209.3 323.301 209.7 323.001 210C322.701 210.3 322.401 210.4 321.901 210.4Z" fill="#8AC054"/>
<path d="M338.8 210.5C337.8 210.5 337 210.3 336.3 210C335.6 209.7 335.1 209.1 334.8 208.5C334.5 207.8 334.3 207 334.3 206V200.9H333.1C332.7 200.9 332.4 200.8 332.2 200.6C332 200.4 331.9 200.1 331.9 199.8C331.9 199.4 332 199.2 332.2 199C332.4 198.8 332.7 198.7 333.1 198.7H334.3V196.5C334.3 196 334.4 195.6 334.7 195.4C335 195.1 335.3 195 335.8 195C336.3 195 336.6 195.1 336.9 195.4C337.1 195.7 337.3 196 337.3 196.5V198.7H339.8C340.2 198.7 340.5 198.8 340.7 199C340.9 199.2 341 199.5 341 199.8C341 200.1 340.9 200.4 340.7 200.6C340.5 200.8 340.2 200.9 339.8 200.9H337.3V205.8C337.3 206.6 337.5 207.1 337.8 207.5C338.1 207.9 338.7 208.1 339.4 208.1C339.7 208.1 339.9 208.1 340.1 208C340.3 208 340.5 207.9 340.6 207.9C340.8 207.9 340.9 207.9 341.1 208.1C341.2 208.2 341.3 208.5 341.3 208.9C341.3 209.2 341.2 209.5 341.1 209.7C341 209.9 340.8 210.1 340.6 210.2C340.4 210.3 340.1 210.3 339.8 210.4C339.3 210.5 339.1 210.5 338.8 210.5Z" fill="#8AC054"/>
<path d="M351.5 196.2C351 196.2 350.5 196.1 350.2 195.8C349.9 195.5 349.7 195.1 349.7 194.6C349.7 194.1 349.9 193.7 350.2 193.4C350.5 193.1 350.9 193 351.5 193C352.1 193 352.5 193.1 352.8 193.4C353.1 193.7 353.2 194.1 353.2 194.6C353.2 195.1 353.1 195.5 352.8 195.8C352.5 196.1 352 196.2 351.5 196.2ZM351.5 210.4C351 210.4 350.7 210.3 350.4 210C350.2 209.7 350 209.3 350 208.8V200.1C350 199.6 350.1 199.2 350.4 198.9C350.6 198.6 351 198.5 351.5 198.5C352 198.5 352.3 198.6 352.6 198.9C352.9 199.2 353 199.6 353 200.1V208.8C353 209.3 352.9 209.7 352.6 210C352.3 210.3 352 210.4 351.5 210.4Z" fill="#8AC054"/>
<path d="M368.801 210.5C367.501 210.5 366.401 210.3 365.501 209.8C364.601 209.3 363.901 208.6 363.401 207.7C362.901 206.8 362.601 205.7 362.601 204.5C362.601 203.3 362.801 202.2 363.301 201.3C363.801 200.4 364.501 199.7 365.301 199.2C366.201 198.7 367.101 198.4 368.201 198.4C369.001 198.4 369.701 198.5 370.401 198.8C371.001 199.1 371.601 199.5 372.001 200C372.501 200.5 372.801 201.1 373.001 201.8C373.201 202.5 373.401 203.3 373.401 204.2C373.401 204.5 373.301 204.7 373.101 204.9C372.901 205.1 372.601 205.1 372.301 205.1H364.801V203.4H371.301L370.901 203.8C370.901 203.1 370.801 202.5 370.601 202C370.401 201.5 370.101 201.1 369.701 200.9C369.301 200.6 368.801 200.5 368.201 200.5C367.501 200.5 367.001 200.7 366.501 201C366.001 201.3 365.701 201.7 365.501 202.3C365.301 202.9 365.101 203.5 365.101 204.3V204.5C365.101 205.8 365.401 206.8 366.001 207.4C366.601 208 367.501 208.4 368.601 208.4C369.001 208.4 369.501 208.3 370.001 208.2C370.501 208.1 371.001 207.9 371.401 207.7C371.701 207.5 372.001 207.4 372.301 207.4C372.501 207.4 372.701 207.5 372.901 207.7C373.001 207.9 373.101 208.1 373.201 208.3C373.201 208.5 373.201 208.8 373.101 209C373.001 209.2 372.801 209.4 372.501 209.6C372.001 209.9 371.301 210.2 370.601 210.4C370.101 210.4 369.401 210.5 368.801 210.5Z" fill="#8AC054"/>
<path d="M387.2 210.5C386.5 210.5 385.8 210.4 385.1 210.3C384.4 210.2 383.7 209.9 383.1 209.6C382.9 209.4 382.7 209.3 382.6 209C382.5 208.8 382.5 208.6 382.5 208.4C382.5 208.2 382.6 208 382.7 207.8C382.8 207.6 383 207.5 383.2 207.5C383.4 207.5 383.6 207.5 383.9 207.6C384.5 207.9 385.1 208.1 385.6 208.2C386.1 208.3 386.7 208.4 387.2 208.4C387.9 208.4 388.5 208.3 388.9 208C389.3 207.7 389.4 207.4 389.4 207C389.4 206.6 389.3 206.4 389 206.2C388.8 206 388.4 205.9 387.9 205.8L385.6 205.3C384.6 205.1 383.9 204.7 383.4 204.2C382.9 203.7 382.6 203 382.6 202.1C382.6 201.3 382.8 200.7 383.2 200.1C383.6 199.5 384.2 199.1 384.9 198.8C385.6 198.5 386.5 198.3 387.4 198.3C388.1 198.3 388.7 198.4 389.3 198.5C389.9 198.6 390.5 198.9 391 199.2C391.2 199.3 391.4 199.5 391.5 199.7C391.6 199.9 391.6 200.1 391.6 200.3C391.6 200.5 391.5 200.7 391.3 200.9C391.2 201.1 391 201.2 390.8 201.2C390.6 201.2 390.4 201.2 390.1 201.1C389.6 200.8 389.2 200.7 388.7 200.6C388.3 200.5 387.8 200.4 387.4 200.4C386.6 200.4 386.1 200.5 385.7 200.8C385.3 201.1 385.2 201.4 385.2 201.9C385.2 202.2 385.3 202.5 385.5 202.7C385.7 202.9 386 203.1 386.5 203.2L388.8 203.7C389.8 203.9 390.6 204.2 391.1 204.7C391.6 205.2 391.9 205.9 391.9 206.7C391.9 207.9 391.5 208.8 390.6 209.4C389.8 210.2 388.6 210.5 387.2 210.5Z" fill="#8AC054"/>
</svg>
